<?xml version="1.0" encoding="utf-8"?>
<!-- Generator: Adobe Illustrator 16.0.0, SVG Export Plug-In . SVG Version: 6.00 Build 0)  -->
<!DOCTYPE svg PUBLIC "-//W3C//DTD SVG 1.1//EN" "http://www.w3.org/Graphics/SVG/1.1/DTD/svg11.dtd">
<svg version="1.1" id="Capa_1" xmlns="http://www.w3.org/2000/svg" xmlns:xlink="http://www.w3.org/1999/xlink" x="0px" y="0px"
	 width="300px" height="300px" viewBox="0 0 300 300" enable-background="new 0 0 300 300" xml:space="preserve">
<g>
	<g>
		<path fill="#F6F8FA" d="M85.746,184.608l0.023,5.557c0.027,6.692-3.303,10.53-9.756,10.557c-6.454,0.026-9.815-3.784-9.843-10.476
			l-0.09-21.75c-0.027-6.692,3.303-10.53,9.757-10.557c6.453-0.027,9.814,3.783,9.842,10.476l0.018,4.063l-6.214,0.025l-0.019-4.481
			c-0.013-2.987-1.332-4.117-3.424-4.108c-2.091,0.008-3.401,1.148-3.389,4.137l0.092,22.586c0.013,2.988,1.332,4.059,3.423,4.05
			c2.092-0.009,3.402-1.09,3.39-4.077l-0.024-5.976L85.746,184.608z"/>
		<path fill="#F6F8FA" d="M89.643,158.36l6.573-0.026l0.147,35.852l10.815-0.044l0.024,5.975l-17.389,0.071L89.643,158.36z"/>
		<path fill="#F6F8FA" d="M109.898,158.277l6.573-0.026l0.172,41.827l-6.573,0.026L109.898,158.277z"/>
		<path fill="#F6F8FA" d="M135.296,187.871l4.359-29.715l9.143-0.037l0.172,41.826l-6.215,0.025l-0.123-29.996l-4.418,30.015
			L132,200.015l-5.021-29.558l0.121,29.578l-5.736,0.023l-0.172-41.827l9.142-0.037L135.296,187.871z"/>
		<path fill="#F6F8FA" d="M173.277,167.639l0.006,1.494c0.018,4.302-1.285,7.056-4.208,8.442c3.531,1.36,4.918,4.521,4.937,8.942
			l0.014,3.406c0.026,6.453-3.364,9.933-9.938,9.96l-10.337,0.042l-0.172-41.827l9.919-0.04
			C170.31,158.03,173.251,161.186,173.277,167.639z M160.176,164.048l0.046,11.054l2.569-0.011c2.45-0.01,3.939-1.091,3.926-4.438
			l-0.01-2.33c-0.012-2.987-1.034-4.298-3.364-4.289L160.176,164.048z M160.246,181.077l0.053,12.847l3.765-0.016
			c2.211-0.009,3.401-1.029,3.389-4.137l-0.015-3.645c-0.016-3.884-1.275-5.074-4.264-5.062L160.246,181.077z"/>
		<path fill="#F6F8FA" d="M177.839,158l6.572-0.027l0.172,41.827l-6.572,0.027L177.839,158z"/>
		<path fill="#F6F8FA" d="M195.096,169.462l0.124,30.295l-5.916,0.023l-0.172-41.826l8.246-0.034l6.854,25.009l-0.103-25.036
			l5.856-0.024l0.172,41.827l-6.752,0.027L195.096,169.462z"/>
		<path fill="#F6F8FA" d="M224.642,176.332l9.201-0.037l0.055,13.265c0.027,6.692-3.303,10.53-9.755,10.557
			c-6.454,0.026-9.815-3.784-9.843-10.477l-0.09-21.75c-0.027-6.692,3.303-10.53,9.757-10.557c6.452-0.026,9.813,3.784,9.841,10.477
			l0.018,4.063l-6.214,0.025l-0.019-4.481c-0.013-2.988-1.331-4.118-3.423-4.109c-2.091,0.009-3.401,1.149-3.389,4.137l0.092,22.587
			c0.013,2.987,1.332,4.058,3.423,4.049c2.092-0.008,3.401-1.089,3.389-4.077l-0.031-7.708l-2.987,0.013L224.642,176.332z"/>
	</g>
	<path fill="#F6F8FA" d="M149.592,79.287c-39.313,0.16-71.051,32.159-70.89,71.472l17.129-0.07l30.017-33.743l16.021,17.717
		l2.742,3.032l-9.076-13.321l15.123-22.11l29.213,41.97l-6.104-11.149l6.035-5.851l24.131,23.014l17.13-0.069
		C220.902,110.864,188.903,79.126,149.592,79.287z M149.665,97.347c-3.872,0.016-7.023-3.11-7.04-6.982
		c-0.016-3.872,3.111-7.024,6.983-7.04s7.023,3.11,7.04,6.982C156.664,94.179,153.538,97.331,149.665,97.347z"/>
	<polygon fill="#F6F8FA" points="112.627,208.763 114.582,212.684 118.921,213.296 115.796,216.367 116.554,220.683 
		112.668,218.659 108.798,220.714 109.521,216.393 106.371,213.348 110.704,212.7 	"/>
	<polygon fill="#F6F8FA" points="131.374,208.687 133.329,212.607 137.667,213.22 134.542,216.291 135.301,220.605 131.414,218.583 
		127.545,220.638 128.268,216.316 125.117,213.271 129.451,212.623 	"/>
	<polygon fill="#F6F8FA" points="150.12,208.609 152.075,212.53 156.414,213.143 153.289,216.214 154.047,220.529 150.161,218.506 
		146.291,220.561 147.014,216.239 143.864,213.194 148.197,212.547 	"/>
	<polygon fill="#F6F8FA" points="168.867,208.533 170.822,212.454 175.16,213.066 172.035,216.138 172.794,220.452 168.907,218.43 
		165.037,220.484 165.761,216.163 162.611,213.117 166.943,212.47 	"/>
	<polygon fill="#F6F8FA" points="187.613,208.456 189.568,212.377 193.907,212.989 190.782,216.061 191.541,220.376 
		187.654,218.353 183.784,220.407 184.508,216.086 181.357,213.041 185.69,212.394 	"/>
</g>
</svg>
