<?xml version="1.0" encoding="utf-8"?>
<!-- Generator: Adobe Illustrator 16.0.0, SVG Export Plug-In . SVG Version: 6.00 Build 0)  -->
<!DOCTYPE svg PUBLIC "-//W3C//DTD SVG 1.1//EN" "http://www.w3.org/Graphics/SVG/1.1/DTD/svg11.dtd">
<svg version="1.1" id="Capa_1" xmlns="http://www.w3.org/2000/svg" xmlns:xlink="http://www.w3.org/1999/xlink" x="0px" y="0px"
	 width="300px" height="300px" viewBox="0 0 300 300" enable-background="new 0 0 300 300" xml:space="preserve">
<g>
	<g>
		<path fill="#F6F8FA" d="M73.563,189.379l4.36-29.716l9.143-0.037l0.171,41.827l-6.215,0.025l-0.123-29.996l-4.418,30.015
			l-6.214,0.025l-5.021-29.558l0.121,29.578l-5.736,0.023l-0.171-41.827l9.143-0.037L73.563,189.379z"/>
		<path fill="#F6F8FA" d="M91.35,169.647c-0.027-6.692,3.482-10.531,9.936-10.557s9.994,3.783,10.021,10.476l0.089,21.75
			c0.027,6.692-3.482,10.531-9.936,10.557c-6.453,0.027-9.994-3.783-10.021-10.476L91.35,169.647z M98.012,191.789
			c0.013,2.988,1.333,4.118,3.424,4.109c2.092-0.008,3.401-1.149,3.389-4.137l-0.092-22.587c-0.013-2.987-1.331-4.117-3.423-4.109
			c-2.091,0.009-3.402,1.149-3.39,4.137L98.012,191.789z"/>
		<path fill="#F6F8FA" d="M121.783,159.484l0.132,32.267c0.012,2.988,1.331,4.058,3.423,4.049c2.091-0.009,3.4-1.089,3.389-4.077
			l-0.132-32.267l6.214-0.025l0.13,31.848c0.027,6.692-3.303,10.53-9.756,10.557s-9.814-3.784-9.842-10.477l-0.13-31.848
			L121.783,159.484z"/>
		<path fill="#F6F8FA" d="M145.193,170.921l0.124,30.294l-5.916,0.024l-0.171-41.827l8.246-0.034l6.854,25.009l-0.102-25.037
			l5.856-0.024l0.171,41.827l-6.752,0.027L145.193,170.921z"/>
		<path fill="#F6F8FA" d="M162.894,159.316l20.316-0.083l0.024,5.975l-6.871,0.028l0.146,35.852l-6.573,0.027l-0.146-35.852
			l-6.872,0.028L162.894,159.316z"/>
		<path fill="#F6F8FA" d="M205.311,200.97l-6.633,0.027l-1.166-7.584l-8.066,0.033l-1.104,7.593l-6.035,0.024l6.521-41.854
			l9.62-0.04L205.311,200.97z M190.258,187.766l6.334-0.026l-3.253-21.14L190.258,187.766z"/>
		<path fill="#F6F8FA" d="M208.188,159.13l6.572-0.027l0.171,41.827l-6.572,0.027L208.188,159.13z"/>
		<path fill="#F6F8FA" d="M225.443,170.592l0.124,30.295l-5.916,0.024l-0.171-41.827l8.245-0.034l6.854,25.009l-0.102-25.037
			l5.856-0.024l0.171,41.827l-6.752,0.027L225.443,170.592z"/>
	</g>
	<g>
		<path fill="#F6F8FA" d="M85.708,208.574l1.769-0.007l0.039,9.649l2.911-0.012l0.007,1.608l-4.68,0.019L85.708,208.574z"/>
		<path fill="#F6F8FA" d="M97.447,211.228c-0.008-1.801,0.937-2.834,2.674-2.841c1.736-0.007,2.689,1.018,2.697,2.819l0.023,5.854
			c0.008,1.801-0.938,2.834-2.674,2.842c-1.737,0.007-2.689-1.019-2.697-2.82L97.447,211.228z M99.24,217.187
			c0.003,0.804,0.358,1.108,0.922,1.106c0.563-0.002,0.915-0.31,0.912-1.113l-0.025-6.08c-0.003-0.804-0.358-1.108-0.921-1.106
			c-0.563,0.002-0.916,0.31-0.913,1.114L99.24,217.187z"/>
		<path fill="#F6F8FA" d="M114.116,219.715c-0.098-0.289-0.163-0.465-0.167-1.382l-0.007-1.769c-0.005-1.045-0.359-1.43-1.164-1.427
			l-0.611,0.002l0.019,4.584l-1.769,0.007l-0.046-11.258l2.67-0.011c1.833-0.007,2.624,0.842,2.631,2.579l0.004,0.884
			c0.005,1.158-0.362,1.916-1.148,2.289c0.886,0.366,1.179,1.218,1.184,2.392l0.007,1.737c0.002,0.547,0.021,0.949,0.199,1.366
			L114.116,219.715z M112.146,210.074l0.015,3.458l0.691-0.003c0.66-0.003,1.061-0.294,1.057-1.194l-0.005-1.11
			c-0.003-0.804-0.278-1.157-0.905-1.154L112.146,210.074z"/>
		<path fill="#F6F8FA" d="M125.045,213.157l2.429-0.01l0.007,1.608l-2.429,0.01l0.014,3.297l3.056-0.013l0.007,1.608l-4.824,0.02
			l-0.046-11.258l4.824-0.02l0.006,1.608l-3.056,0.012L125.045,213.157z"/>
		<path fill="#F6F8FA" d="M139.392,216.347l1.174-7.998l2.461-0.01l0.046,11.258l-1.673,0.007l-0.033-8.074l-1.189,8.079
			l-1.672,0.007l-1.353-7.956l0.033,7.961l-1.544,0.006l-0.046-11.258l2.461-0.01L139.392,216.347z"/>
		<path fill="#F6F8FA" d="M159.68,208.271l1.769-0.007l0.046,11.258l-1.769,0.007L159.68,208.271z"/>
		<path fill="#F6F8FA" d="M174.409,210.993l0.006,1.464c0.008,1.801-0.857,2.786-2.626,2.793l-0.837,0.003l0.018,4.229l-1.769,0.007
			l-0.046-11.258l2.605-0.011C173.529,208.214,174.402,209.192,174.409,210.993z M170.93,209.833l0.016,3.812l0.837-0.003
			c0.563-0.002,0.867-0.261,0.864-1.065l-0.007-1.689c-0.004-0.804-0.311-1.06-0.873-1.058L170.93,209.833z"/>
		<path fill="#F6F8FA" d="M184.019,208.043c1.721-0.007,2.609,1.019,2.617,2.82l0.001,0.354l-1.673,0.007l-0.002-0.467
			c-0.003-0.804-0.325-1.108-0.888-1.106c-0.563,0.002-0.884,0.309-0.881,1.113c0.01,2.316,3.47,2.736,3.482,5.953
			c0.008,1.801-0.89,2.834-2.626,2.841c-1.737,0.007-2.642-1.019-2.649-2.82l-0.002-0.691l1.673-0.007l0.003,0.804
			c0.003,0.804,0.357,1.092,0.92,1.09c0.563-0.002,0.916-0.293,0.913-1.097c-0.01-2.316-3.47-2.736-3.482-5.953
			C181.417,209.083,182.298,208.05,184.019,208.043z"/>
		<path fill="#F6F8FA" d="M195.78,208.124l0.035,8.685c0.003,0.804,0.358,1.092,0.922,1.09c0.563-0.002,0.914-0.293,0.911-1.097
			l-0.035-8.685l1.673-0.007l0.035,8.572c0.007,1.801-0.89,2.834-2.627,2.841c-1.736,0.007-2.642-1.019-2.648-2.82l-0.035-8.572
			L195.78,208.124z"/>
		<path fill="#F6F8FA" d="M210.693,216.056l1.174-7.998l2.461-0.01l0.046,11.258l-1.673,0.007l-0.033-8.074l-1.189,8.079
			l-1.672,0.007l-1.353-7.956l0.033,7.961l-1.544,0.006l-0.046-11.258l2.461-0.01L210.693,216.056z"/>
	</g>
	<path fill="#F6F8FA" d="M188.779,112.465l-11.599,11.243l-30.575-43.926l-21.536,31.487l-9.273-10.253l-43.45,48.844l26.402-0.108
		l51.784-0.212l9.112-0.037l35.391-0.145l32.291-0.132L188.779,112.465z M116.961,129.021l-0.012-2.868l-4.033,2.885l-1.834-1.183
		l-1.837,2.021l-2.861-2.002l-3.516,2.028l2.331-4.51l-10.992,7.279l21.619-24.303l3.959,4.378l-1.537,2.828l0.85,2.514l2.853-0.012
		l-0.487,4.03l3.786-3.318l1.515,1.675L116.961,129.021z M159.511,116.917l-2.313,2.526l-4.215-4.8l-7.345,9.714l0.319-4.004
		l4.399-13.804l-6.596,10.264l-6.428,3.575l2.228-4.9l-1.517-1.504l-5.193,5.891l-4.981-5.509l18.766-27.436l5.881,8.448
		l-5.804,10.263l7.123-8.126l2.489,3.335l-2.702,6.231l3.259-3.411l2.591,3.681l-4.316,5.251L159.511,116.917z M192.506,135.997
		l2.99-7.438l-2.764,1.145l-2.396-1.123l-5.402,2.36l2.507-2.601l-0.634-1.13l-4.584,3.741l-2.365-3.396l8.947-8.674l2.789,2.659
		l-1.485,2.594l0.589,0.543l2.075-2.012l6.27,5.979L192.506,135.997z"/>
</g>
</svg>
