<?xml version="1.0" encoding="utf-8"?>
<!-- Generator: Adobe Illustrator 16.0.0, SVG Export Plug-In . SVG Version: 6.00 Build 0)  -->
<!DOCTYPE svg PUBLIC "-//W3C//DTD SVG 1.1//EN" "http://www.w3.org/Graphics/SVG/1.1/DTD/svg11.dtd">
<svg version="1.1" id="Capa_1" xmlns="http://www.w3.org/2000/svg" xmlns:xlink="http://www.w3.org/1999/xlink" x="0px" y="0px"
	 width="300px" height="300px" viewBox="0 0 300 300" enable-background="new 0 0 300 300" xml:space="preserve">
<g>
	<path fill="#F6F8FA" d="M241.278,208.882l-7.885-18.772l7.749-21.075c0.227-0.617,0.138-1.307-0.24-1.845
		c-0.377-0.539-0.994-0.858-1.652-0.855l-16.91,0.068l-0.023-5.639c-0.005-1.109-0.907-2.004-2.016-1.999l-9.168,0.037
		l-0.293-71.505L88.327,87.798l0.292,71.505l-9.168,0.038c-1.108,0.004-2.004,0.906-1.999,2.016l0.022,5.639l-16.91,0.069
		c-0.658,0.003-1.272,0.327-1.646,0.869c-0.373,0.541-0.457,1.231-0.225,1.847l7.921,21.011l-7.73,18.837
		c-0.256,0.621-0.183,1.328,0.191,1.886c0.375,0.555,1.003,0.888,1.674,0.885l35.215-0.144c1.108-0.005,2.004-0.906,2-2.017
		l-0.023-5.646l16.311-0.066l35.893,20.163l35.727-20.456l16.311-0.066l0.022,5.646c0.005,1.109,0.907,2.004,2.017,1.999
		l35.215-0.144c0.671-0.003,1.296-0.341,1.666-0.899C241.472,210.209,241.538,209.501,241.278,208.882z M127.029,135.947
		l2.121-0.009l-0.362,2.995l2.814-2.466l1.125,1.245l-7.286,6.36l-0.009-2.131l-2.998,2.144l-1.362-0.879l-1.366,1.502l-2.127-1.488
		l-2.613,1.507l1.733-3.352l-8.17,5.411l16.068-18.064l2.942,3.254l-1.142,2.103L127.029,135.947z M152.85,120.655l1.85,2.479
		l-2.008,4.631l2.422-2.536l1.926,2.736l-3.208,3.903l3.237,3.207l-1.72,1.878l-3.134-3.568l-5.458,7.22l0.237-2.976l3.27-10.26
		L145.361,135l-4.777,2.657l1.655-3.642l-1.127-1.118l-3.86,4.379l-3.702-4.094l13.948-20.393l4.37,6.279l-4.313,7.628
		L152.85,120.655z M180.249,140.844l1.542-1.496l4.659,4.444l-4.857,5.466l2.223-5.528l-2.055,0.85l-1.781-0.834l-4.016,1.754
		l1.863-1.933l-0.471-0.84l-3.407,2.781l-1.758-2.524l6.65-6.447l2.072,1.976l-1.104,1.928L180.249,140.844z M95.771,95.181
		l107.687-0.44l0.249,60.757l-24.884-23.73l-8.621,8.357l-22.726-32.649l-16.008,23.404l-6.893-7.622l-28.559,32.104L95.771,95.181z
		 M93.94,208.248l-30.199,0.124l6.889-16.786c0.193-0.472,0.2-0.997,0.021-1.471l-7.181-19.046l14.021-0.058l0.13,31.656
		c0.004,1.11,0.907,2.004,2.016,2l14.289-0.059L93.94,208.248z M81.628,200.644l-0.152-37.296l136.834-0.56l0.152,37.296
		L81.628,200.644z M206.212,207.789l-0.016-3.639l14.29-0.059c1.108-0.005,2.004-0.906,1.999-2.016l-0.129-31.657l14.021-0.057
		l-7.024,19.104c-0.176,0.476-0.164,1.001,0.033,1.471l7.025,16.729L206.212,207.789z"/>
	<polygon fill="#F6F8FA" points="143.904,83.582 149.555,80.581 155.23,83.535 154.123,77.233 158.686,72.749 152.351,71.854 
		149.496,66.129 146.688,71.878 140.36,72.824 144.96,77.271 	"/>
	<polygon fill="#F6F8FA" points="126.816,83.651 130.874,81.497 134.949,83.618 134.154,79.093 137.431,75.874 132.882,75.232 
		130.832,71.121 128.815,75.249 124.272,75.927 127.575,79.121 	"/>
	<polygon fill="#F6F8FA" points="114.614,83.702 117.527,82.155 120.453,83.678 119.882,80.429 122.235,78.117 118.969,77.656 
		117.497,74.704 116.05,77.668 112.787,78.155 115.158,80.448 	"/>
	<polygon fill="#F6F8FA" points="164.185,83.499 168.243,81.344 172.317,83.465 171.522,78.94 174.799,75.721 170.25,75.079 
		168.2,70.968 166.184,75.096 161.641,75.774 164.943,78.968 	"/>
	<polygon fill="#F6F8FA" points="178.682,83.439 181.595,81.893 184.52,83.416 183.949,80.167 186.302,77.855 183.036,77.394 
		181.564,74.442 180.116,77.406 176.854,77.894 179.226,80.186 	"/>
	<g>
		<path fill="#F6F8FA" d="M105.948,193.058l-3.565,0.015l-0.628-4.077l-4.336,0.018l-0.593,4.082l-3.244,0.013l3.505-22.498
			l5.171-0.021L105.948,193.058z M97.856,185.96l3.405-0.014l-1.75-11.363L97.856,185.96z"/>
		<path fill="#F6F8FA" d="M107.495,170.568l5.589-0.023c3.533-0.015,5.276,1.938,5.291,5.535l0.046,11.37
			c0.015,3.598-1.711,5.564-5.244,5.578l-5.589,0.023L107.495,170.568z M111.042,173.765l0.065,16.06l1.991-0.008
			c1.124-0.005,1.797-0.585,1.79-2.191l-0.048-11.692c-0.007-1.606-0.684-2.181-1.808-2.177L111.042,173.765z"/>
		<path fill="#F6F8FA" d="M126.007,188.833l2.623-18.351l3.244-0.014l-3.376,22.498l-5.268,0.021l-3.562-22.469l3.565-0.015
			L126.007,188.833z"/>
		<path fill="#F6F8FA" d="M137.086,179.922l4.85-0.02l0.014,3.212l-4.85,0.02l0.026,6.585l6.103-0.025l0.014,3.212l-9.636,0.04
			l-0.093-22.483l9.636-0.04l0.014,3.212l-6.103,0.025L137.086,179.922z"/>
		<path fill="#F6F8FA" d="M148.508,176.599l0.067,16.285l-3.18,0.013l-0.093-22.483l4.433-0.018l3.685,13.443l-0.056-13.458
			l3.148-0.013l0.093,22.483l-3.63,0.015L148.508,176.599z"/>
		<path fill="#F6F8FA" d="M158.023,170.361l10.921-0.044l0.014,3.212l-3.693,0.015l0.079,19.271l-3.533,0.015l-0.079-19.272
			l-3.694,0.015L158.023,170.361z"/>
		<path fill="#F6F8FA" d="M173.859,170.296l0.071,17.344c0.007,1.606,0.716,2.181,1.84,2.177s1.829-0.585,1.822-2.191l-0.071-17.345
			l3.34-0.014l0.07,17.12c0.015,3.597-1.775,5.661-5.244,5.675s-5.276-2.034-5.291-5.632l-0.07-17.12L173.859,170.296z"/>
		<path fill="#F6F8FA" d="M190.752,192.711c-0.195-0.577-0.324-0.93-0.332-2.761l-0.015-3.533c-0.009-2.088-0.719-2.855-2.325-2.849
			l-1.22,0.005l0.038,9.154l-3.533,0.014l-0.093-22.483l5.331-0.022c3.662-0.015,5.244,1.681,5.258,5.15l0.007,1.767
			c0.01,2.313-0.724,3.825-2.293,4.57c1.769,0.731,2.354,2.432,2.364,4.776l0.014,3.469c0.005,1.092,0.039,1.895,0.396,2.729
			L190.752,192.711z M186.819,173.455l0.028,6.906l1.381-0.005c1.316-0.005,2.117-0.587,2.11-2.386l-0.009-2.216
			c-0.007-1.606-0.556-2.31-1.809-2.305L186.819,173.455z"/>
		<path fill="#F6F8FA" d="M199.758,179.666l4.85-0.02l0.014,3.212l-4.85,0.02l0.026,6.584l6.103-0.025l0.014,3.212l-9.636,0.04
			l-0.093-22.483l9.636-0.04l0.014,3.212l-6.103,0.025L199.758,179.666z"/>
	</g>
	<g>
		<path fill="#F6F8FA" d="M106.34,234.019l-1.3-0.708l4.506-8.273l1.3,0.708l-1.931,3.545l1.478,0.805l1.931-3.545l1.323,0.721
			l-4.506,8.273l-1.323-0.721l1.931-3.545l-1.478-0.805L106.34,234.019z"/>
	</g>
	<g>
		<path fill="#F6F8FA" d="M114.577,227.702l1.335,0.641l-4.077,8.493l-1.335-0.641L114.577,227.702z"/>
	</g>
	<g>
		<path fill="#F6F8FA" d="M116.449,234.783l-0.756,0.618l-1.118,2.668l-1.365-0.573l3.643-8.688l1.365,0.573l-1.587,3.785
			l3.375-3.036l1.365,0.572l-3.523,3.076l-0.119,5.612l-1.403-0.588L116.449,234.783z"/>
	</g>
	<g>
		<path fill="#F6F8FA" d="M121.959,230.88l1.393,0.503l-3.201,8.86l-1.393-0.503L121.959,230.88z"/>
	</g>
	<g>
		<path fill="#F6F8FA" d="M124.844,234.623l-1.982,6.529l-1.276-0.387l2.737-9.015l1.777,0.54l-0.183,5.838l1.639-5.396l1.262,0.383
			l-2.737,9.015l-1.455-0.442L124.844,234.623z"/>
	</g>
	<g>
		<path fill="#F6F8FA" d="M131.028,237.933l2.02,0.465l-0.671,2.912c-0.338,1.469-1.266,2.139-2.683,1.813
			c-1.416-0.326-1.957-1.334-1.619-2.803l1.1-4.774c0.338-1.469,1.266-2.14,2.682-1.813c1.417,0.326,1.958,1.335,1.62,2.804
			l-0.206,0.892l-1.364-0.314l0.227-0.983c0.151-0.656-0.079-0.971-0.538-1.077c-0.46-0.106-0.806,0.077-0.957,0.733l-1.141,4.958
			c-0.151,0.656,0.082,0.958,0.542,1.064c0.459,0.105,0.802-0.064,0.953-0.72l0.389-1.692l-0.655-0.151L131.028,237.933z"/>
	</g>
	<g>
		<path fill="#F6F8FA" d="M140.412,244.838l-1.479-0.199l-0.026-1.728l-1.801-0.242l-0.48,1.66l-1.348-0.182l2.748-9.136
			l2.147,0.288L140.412,244.838z M137.462,241.427l1.414,0.19l-0.072-4.817L137.462,241.427z"/>
	</g>
	<g>
		<path fill="#F6F8FA" d="M143.447,238.231l-0.438,6.81l-1.33-0.086l0.605-9.401l1.854,0.12l1.155,5.725l0.362-5.627l1.316,0.085
			l-0.605,9.401l-1.518-0.098L143.447,238.231z"/>
	</g>
	<g>
		<path fill="#F6F8FA" d="M147.985,235.897l2.342-0.025c1.48-0.016,2.216,0.797,2.232,2.304l0.051,4.764
			c0.017,1.507-0.701,2.336-2.182,2.352l-2.342,0.025L147.985,235.897z M149.48,237.227l0.072,6.729l0.835-0.009
			c0.471-0.005,0.751-0.25,0.743-0.923l-0.053-4.898c-0.007-0.673-0.292-0.912-0.763-0.907L149.48,237.227z"/>
	</g>
	<g>
		<path fill="#F6F8FA" d="M160.313,241.178l0.119,1.246c0.143,1.5-0.525,2.43-1.973,2.567c-1.446,0.138-2.279-0.648-2.422-2.149
			l-0.465-4.876c-0.143-1.501,0.526-2.43,1.973-2.567c1.447-0.138,2.279,0.648,2.422,2.149l0.087,0.911l-1.394,0.133l-0.096-1.005
			c-0.063-0.67-0.383-0.896-0.851-0.852c-0.47,0.045-0.74,0.327-0.677,0.997l0.482,5.064c0.063,0.67,0.382,0.883,0.852,0.838
			c0.468-0.044,0.739-0.313,0.676-0.983l-0.128-1.34L160.313,241.178z"/>
	</g>
	<g>
		<path fill="#F6F8FA" d="M160.598,235.178l1.462-0.229l1.248,7.978l2.407-0.376l0.208,1.329l-3.869,0.606L160.598,235.178z"/>
	</g>
	<g>
		<path fill="#F6F8FA" d="M165.068,234.431l1.451-0.293l1.867,9.234l-1.451,0.293L165.068,234.431z"/>
	</g>
	<g>
		<path fill="#F6F8FA" d="M172.298,239.627l-0.749-6.723l1.988-0.531l2.429,9.103l-1.352,0.361l-1.741-6.528l0.753,6.792
			l-1.352,0.361l-2.785-6.152l1.718,6.437l-1.248,0.333l-2.429-9.103l1.989-0.531L172.298,239.627z"/>
	</g>
	<g>
		<path fill="#F6F8FA" d="M179.388,232.605l0.112,0.317c0.323,0.914,0.25,1.596-0.268,2.107c0.852,0.027,1.381,0.597,1.713,1.536
			l0.256,0.723c0.485,1.37,0.022,2.362-1.373,2.855l-2.195,0.777l-3.143-8.881l2.106-0.746
			C178.043,230.783,178.902,231.235,179.388,232.605z M176.334,232.814l0.831,2.347l0.546-0.193
			c0.521-0.184,0.756-0.525,0.505-1.235l-0.176-0.495c-0.225-0.634-0.538-0.837-1.032-0.662L176.334,232.814z M177.613,236.431
			l0.966,2.728l0.8-0.283c0.469-0.166,0.647-0.472,0.414-1.131l-0.274-0.774c-0.292-0.825-0.647-0.984-1.282-0.759L177.613,236.431z
			"/>
	</g>
	<g>
		<path fill="#F6F8FA" d="M179.595,230.167l1.37-0.563l3.583,8.712l-1.37,0.563L179.595,230.167z"/>
	</g>
	<g>
		<path fill="#F6F8FA" d="M184.238,231.003l2.916,6.168l-1.205,0.57l-4.027-8.517l1.68-0.794l3.786,4.447l-2.411-5.098l1.193-0.563
			l4.026,8.517l-1.375,0.65L184.238,231.003z"/>
	</g>
	<g>
		<path fill="#F6F8FA" d="M191.036,229.306l1.809-1.011l1.458,2.608c0.735,1.315,0.498,2.435-0.771,3.145
			c-1.269,0.709-2.347,0.325-3.082-0.991l-2.391-4.276c-0.735-1.315-0.498-2.435,0.771-3.144c1.269-0.71,2.347-0.325,3.082,0.99
			l0.446,0.799l-1.221,0.683l-0.492-0.881c-0.329-0.587-0.712-0.667-1.123-0.437s-0.546,0.598-0.217,1.185l2.482,4.44
			c0.328,0.587,0.705,0.654,1.116,0.424s0.552-0.585,0.224-1.173l-0.848-1.516l-0.588,0.328L191.036,229.306z"/>
	</g>
</g>
</svg>
