<?xml version="1.0" encoding="utf-8"?>
<!-- Generator: Adobe Illustrator 16.0.0, SVG Export Plug-In . SVG Version: 6.00 Build 0)  -->
<!DOCTYPE svg PUBLIC "-//W3C//DTD SVG 1.1//EN" "http://www.w3.org/Graphics/SVG/1.1/DTD/svg11.dtd">
<svg version="1.1" id="Capa_1" xmlns="http://www.w3.org/2000/svg" xmlns:xlink="http://www.w3.org/1999/xlink" x="0px" y="0px"
	 width="300px" height="300px" viewBox="0 0 300 300" enable-background="new 0 0 300 300" xml:space="preserve">
<g>
	<path fill="#3F4E6C" d="M83.449,134.652c-0.06,0.568-0.118,1.137-0.118,1.137l1.96-1.088l2.033,1.014l-0.363-2.125l1.655-1.441
		l-2.244-0.436l-0.949-2.076l-1.075,2.002l-2.289,0.291l1.604,1.609C83.662,133.539,83.537,134.092,83.449,134.652z"/>
	<polygon fill="#3F4E6C" points="87.412,125.113 89.538,124.369 91.397,125.717 91.271,123.498 93.188,122.377 91.037,121.572 
		90.484,119.389 89.038,121.154 86.711,121.051 88.086,122.934 	"/>
	<path fill="#3F4E6C" d="M97.122,110.086c0,0-0.439,0.365-0.879,0.73c-0.427,0.377-0.813,0.791-0.813,0.791l-2.228-0.447
		l1.024,2.068l-1.074,2.002l2.256-0.357l1.603,1.629l0.287-2.176l1.977-0.871l-1.975-1.135L97.122,110.086z"/>
	<polygon fill="#3F4E6C" points="105.202,101.994 103.324,103.266 101.181,102.443 101.835,104.631 100.433,106.414 
		102.721,106.436 104.028,108.299 104.704,106.236 106.828,105.734 105.063,104.289 	"/>
	<path fill="#3F4E6C" d="M114.54,95.398l-2.093,0.896l-1.993-1.186l0.272,2.242l-1.609,1.625l2.211,0.334l0.999,2.074
		c0,0,0.229-0.506,0.457-1.014c0.262-0.471,0.522-0.943,0.522-0.943l2.207-0.102l-1.51-1.723L114.54,95.398z"/>
	<path fill="#3F4E6C" d="M124.811,90.389l-2.236,0.479l-1.744-1.441l-0.074,2.32l-1.883,1.281l2.146,0.734l0.64,2.201l1.272-1.807
		c0,0,0.539,0.035,1.078,0.072c0.55,0.082,1.1,0.162,1.1,0.162l-1.208-1.959L124.811,90.389z"/>
	<path fill="#3F4E6C" d="M132.016,85.582l-0.466,2.246l-2.088,0.887l2.008,1.129l0.263,2.264l1.57-1.512l2.101,0.551l-0.86-2.107
		c0,0,0.298-0.49,0.597-0.982c0.302-0.494,0.618-0.975,0.618-0.975l-2.254,0.236L132.016,85.582z"/>
	<path fill="#3F4E6C" d="M142.312,89.957c0,0,0.434-0.375,0.888-0.645c0.455-0.291,0.91-0.582,0.91-0.582l1.987,0.961l-0.503-2.234
		l1.523-1.686l-2.268-0.205l-1.184-1.992l-0.832,2.102l-2.19,0.641l1.78,1.338L142.312,89.957z"/>
	<path fill="#3F4E6C" d="M155.488,83.525l-1.168,2.002l-2.264,0.225l1.537,1.672l-0.486,2.238l1.98-0.977
		c0,0,0.457,0.287,0.914,0.574c0.457,0.266,0.893,0.637,0.893,0.637l-0.131-2.301l1.77-1.354l-2.195-0.621L155.488,83.525z"/>
	<path fill="#3F4E6C" d="M167.156,85.439l-1.475,1.746l-2.256-0.217c0,0,0.318,0.479,0.625,0.971
		c0.303,0.488,0.605,0.977,0.605,0.977l-0.844,2.115l2.096-0.568l1.584,1.498l0.244-2.266l1.998-1.145l-2.096-0.869L167.156,85.439z
		"/>
	<path fill="#3F4E6C" d="M178.371,89.191l-1.732,1.455l-2.24-0.461l0.928,2.035l-1.191,1.971c0,0,0.549-0.086,1.098-0.172
		c0.539-0.041,1.078-0.082,1.078-0.082l1.287,1.797l0.621-2.207l2.139-0.752l-1.893-1.266L178.371,89.191z"/>
	<path fill="#3F4E6C" d="M185.977,99.131c0,0,0.266,0.469,0.531,0.939c0.232,0.504,0.465,1.01,0.465,1.01l0.982-2.082l2.207-0.354
		l-1.621-1.611l0.254-2.244l-1.984,1.201l-2.1-0.879l0.555,2.201l-1.496,1.736L185.977,99.131z"/>
	<polygon fill="#3F4E6C" points="198.127,102.047 195.99,102.887 194.104,101.629 194.26,103.924 192.508,105.383 194.635,105.867 
		195.328,107.924 196.619,106.051 198.906,106.01 197.49,104.24 	"/>
	<path fill="#3F4E6C" d="M202.412,116.072l1.59-1.643l2.258,0.338l-1.09-1.992l1.008-2.076l-2.225,0.463c0,0-0.391-0.41-0.82-0.783
		c-0.441-0.361-0.885-0.723-0.885-0.723l-0.158,2.236l-1.965,1.15l1.982,0.854L202.412,116.072z"/>
	<polygon fill="#3F4E6C" points="208.209,123.021 208.102,125.24 209.949,123.877 212.08,124.604 211.389,122.43 212.748,120.535 
		210.424,120.658 208.963,118.904 208.428,121.092 206.283,121.914 	"/>
	<path fill="#3F4E6C" d="M212.602,133.076l-0.346,2.129l2.023-1.031l1.971,1.072c0,0-0.064-0.568-0.127-1.137
		c-0.094-0.561-0.223-1.111-0.223-1.111l1.59-1.623l-2.291-0.271l-1.092-1.994l-0.932,2.086l-2.24,0.451L212.602,133.076z"/>
	<g>
		<path fill="#3F4E6C" d="M80.09,175.663l9.022-0.037l0.024,5.976l-9.022,0.036l0.05,12.25l11.354-0.047l0.024,5.976l-17.926,0.073
			l-0.171-41.827l17.926-0.073l0.024,5.976l-11.354,0.046L80.09,175.663z"/>
		<path fill="#3F4E6C" d="M105.494,192.051l4.878-34.14l6.035-0.024l-6.282,41.854l-9.799,0.04l-6.624-41.801l6.633-0.026
			L105.494,192.051z"/>
		<path fill="#3F4E6C" d="M126.101,175.475l9.022-0.037l0.024,5.976l-9.022,0.037l0.05,12.249l11.354-0.047l0.024,5.976
			l-17.926,0.073l-0.171-41.827l17.926-0.073l0.024,5.976l-11.354,0.047L126.101,175.475z"/>
		<path fill="#3F4E6C" d="M155.36,199.556c-0.362-1.074-0.604-1.73-0.618-5.137l-0.027-6.573c-0.016-3.884-1.336-5.313-4.324-5.3
			l-2.271,0.009l0.069,17.03l-6.572,0.026l-0.171-41.827l9.919-0.04c6.812-0.028,9.752,3.127,9.778,9.58l0.014,3.286
			c0.018,4.303-1.345,7.116-4.267,8.503c3.292,1.36,4.38,4.523,4.397,8.885l0.026,6.454c0.009,2.031,0.075,3.524,0.738,5.076
			L155.36,199.556z M148.043,163.732l0.053,12.848l2.569-0.011c2.45-0.01,3.94-1.092,3.927-4.438l-0.018-4.123
			c-0.012-2.988-1.034-4.299-3.364-4.289L148.043,163.732z"/>
		<path fill="#3F4E6C" d="M172.112,175.286l9.022-0.036l0.024,5.975l-9.022,0.037l0.05,12.249l11.354-0.046l0.024,5.975
			l-17.926,0.074l-0.171-41.827l17.926-0.073l0.024,5.975l-11.354,0.047L172.112,175.286z"/>
		<path fill="#3F4E6C" d="M196.298,157.082c6.394-0.026,9.696,3.785,9.724,10.477l0.006,1.315l-6.215,0.025l-0.008-1.733
			c-0.012-2.987-1.212-4.118-3.303-4.109c-2.092,0.009-3.282,1.148-3.271,4.137c0.036,8.604,12.89,10.165,12.938,22.115
			c0.027,6.692-3.304,10.53-9.757,10.557s-9.815-3.784-9.843-10.477l-0.01-2.569l6.215-0.025l0.012,2.988
			c0.013,2.987,1.331,4.058,3.423,4.049c2.091-0.009,3.401-1.09,3.389-4.077c-0.035-8.604-12.889-10.165-12.938-22.115
			C186.634,160.946,189.904,157.108,196.298,157.082z"/>
		<path fill="#3F4E6C" d="M207.893,157.513l20.315-0.083l0.024,5.976l-6.871,0.027l0.146,35.853l-6.573,0.026l-0.146-35.852
			l-6.871,0.028L207.893,157.513z"/>
	</g>
	<polygon fill="#3F4E6C" points="179.768,126.346 173.732,132.195 179.836,143.344 150.624,101.375 135.5,123.484 144.576,136.807 
		141.834,133.773 125.812,116.059 95.795,149.801 117.561,149.711 155.824,149.555 156.104,149.555 184.08,149.439 203.898,149.359 
			"/>
	<g>
		<path fill="#3F4E6C" d="M85.703,204.827l1.769-0.008l0.04,9.649l2.911-0.012l0.006,1.608l-4.68,0.02L85.703,204.827z"/>
		<path fill="#3F4E6C" d="M97.459,207.48c-0.008-1.801,0.937-2.834,2.674-2.842c1.736-0.007,2.689,1.019,2.697,2.82l0.023,5.854
			c0.008,1.802-0.938,2.835-2.674,2.842c-1.737,0.007-2.689-1.019-2.697-2.819L97.459,207.48z M99.251,213.439
			c0.004,0.805,0.358,1.108,0.922,1.106c0.563-0.002,0.916-0.31,0.912-1.113l-0.024-6.079c-0.003-0.805-0.359-1.108-0.922-1.106
			c-0.563,0.003-0.915,0.31-0.912,1.113L99.251,213.439z"/>
		<path fill="#3F4E6C" d="M114.143,215.969c-0.098-0.289-0.163-0.466-0.166-1.383l-0.008-1.77c-0.004-1.045-0.359-1.43-1.164-1.426
			l-0.611,0.002l0.019,4.584l-1.769,0.007l-0.046-11.258l2.67-0.011c1.833-0.008,2.625,0.842,2.632,2.578l0.004,0.885
			c0.005,1.158-0.362,1.916-1.149,2.289c0.887,0.366,1.179,1.217,1.184,2.391l0.008,1.737c0.002,0.547,0.021,0.949,0.198,1.366
			L114.143,215.969z M112.173,206.327l0.014,3.457l0.691-0.003c0.66-0.002,1.061-0.293,1.057-1.194l-0.004-1.109
			c-0.004-0.804-0.278-1.157-0.905-1.154L112.173,206.327z"/>
		<path fill="#3F4E6C" d="M125.088,209.41l2.429-0.01l0.007,1.608l-2.429,0.01l0.014,3.297l3.056-0.013l0.006,1.608l-4.824,0.02
			l-0.046-11.258l4.824-0.02l0.007,1.608l-3.056,0.012L125.088,209.41z"/>
		<path fill="#3F4E6C" d="M139.436,212.601l1.173-7.998l2.461-0.011l0.046,11.258l-1.673,0.007l-0.032-8.073l-1.19,8.078
			l-1.672,0.007l-1.352-7.955l0.032,7.961l-1.544,0.006l-0.046-11.258l2.461-0.01L139.436,212.601z"/>
		<path fill="#3F4E6C" d="M159.69,204.524l1.769-0.008l0.046,11.258l-1.769,0.008L159.69,204.524z"/>
		<path fill="#3F4E6C" d="M174.438,207.246l0.006,1.464c0.008,1.801-0.857,2.785-2.626,2.793l-0.837,0.003l0.017,4.23l-1.769,0.007
			l-0.046-11.258l2.605-0.011C173.557,204.468,174.43,205.445,174.438,207.246z M170.958,206.086l0.016,3.813l0.837-0.004
			c0.563-0.002,0.867-0.261,0.863-1.065l-0.007-1.688c-0.003-0.804-0.31-1.061-0.872-1.058L170.958,206.086z"/>
		<path fill="#3F4E6C" d="M184.063,204.296c1.721-0.007,2.609,1.019,2.617,2.819l0.001,0.354l-1.673,0.007l-0.002-0.467
			c-0.003-0.804-0.326-1.108-0.889-1.105c-0.563,0.002-0.883,0.309-0.88,1.113c0.01,2.315,3.47,2.735,3.482,5.952
			c0.008,1.801-0.89,2.834-2.626,2.841c-1.737,0.008-2.642-1.018-2.649-2.819l-0.003-0.691l1.673-0.007l0.003,0.804
			c0.004,0.805,0.358,1.093,0.921,1.09c0.563-0.002,0.916-0.293,0.912-1.097c-0.009-2.316-3.469-2.736-3.481-5.953
			C181.462,205.336,182.343,204.303,184.063,204.296z"/>
		<path fill="#3F4E6C" d="M195.808,204.376l0.036,8.685c0.003,0.805,0.357,1.093,0.921,1.09c0.563-0.002,0.915-0.293,0.912-1.097
			l-0.036-8.685l1.673-0.007l0.035,8.571c0.008,1.802-0.889,2.835-2.626,2.842c-1.736,0.007-2.642-1.019-2.649-2.819l-0.035-8.572
			L195.808,204.376z"/>
		<path fill="#3F4E6C" d="M210.736,212.309l1.173-7.998l2.461-0.01l0.046,11.258l-1.673,0.007l-0.032-8.074l-1.19,8.079
			l-1.672,0.007l-1.352-7.956l0.032,7.961l-1.543,0.007l-0.046-11.258l2.46-0.011L210.736,212.309z"/>
	</g>
</g>
</svg>
