<?xml version="1.0" encoding="utf-8"?>
<!-- Generator: Adobe Illustrator 16.0.0, SVG Export Plug-In . SVG Version: 6.00 Build 0)  -->
<!DOCTYPE svg PUBLIC "-//W3C//DTD SVG 1.1//EN" "http://www.w3.org/Graphics/SVG/1.1/DTD/svg11.dtd">
<svg version="1.1" id="Capa_1" xmlns="http://www.w3.org/2000/svg" xmlns:xlink="http://www.w3.org/1999/xlink" x="0px" y="0px"
	 width="300px" height="300px" viewBox="0 0 300 300" enable-background="new 0 0 300 300" xml:space="preserve">
<g>
	<polygon fill="#F6F8FA" points="150.445,107.728 131.098,136.014 136.08,141.521 140.84,138.343 144.01,139.266 152.279,129.655 
		158.424,128.633 157.576,124.566 165.824,129.823 	"/>
	<polygon fill="#F6F8FA" points="119.07,128.039 138.42,149.675 129.141,147.709 126.135,151.697 119.145,146.126 119.125,141.311 
		113.941,141.612 113.096,137.958 109.791,138.47 	"/>
	<polygon fill="#F6F8FA" points="191.334,138.137 181.549,147.624 184.824,152.331 186.475,151.118 188.266,152.317 
		191.375,147.941 193.238,148.931 195.389,146.472 197.422,148.249 200.785,147.15 	"/>
	<path fill="#F6F8FA" d="M188.398,99.598l-7.369,0.03l-13.338,0.055l-4.576,0.019c-0.006-1.263,1.016-2.292,2.279-2.297
		c1.264-0.005,2.291,1.015,2.297,2.279c-0.016-3.683,2.959-6.681,6.641-6.696c3.684-0.015,6.682,2.958,6.697,6.642
		c-0.008-1.993,1.494-3.623,3.428-3.85c-9.342-8.18-21.584-13.126-34.979-13.072c-19.404,0.08-36.311,10.623-45.426,26.256
		c1.523-1.173,3.404-1.9,5.475-1.909c5.01-0.021,9.088,4.025,9.109,9.036c-0.014-3.296,2.646-5.979,5.943-5.992
		c3.295-0.014,5.979,2.647,5.992,5.943l-11.936,0.049l-18.074,0.074c-2.389,6.059-3.701,12.656-3.674,19.565
		c0.016,3.628,0.441,7.153,1.156,10.571l21.004-23.61l9.182,10.153l21.326-31.18l30.275,43.496l11.484-11.133l10.488,10.001
		c0.463-2.841,0.709-5.755,0.695-8.73C202.445,121.501,197.098,108.968,188.398,99.598z"/>
	<g>
		<path fill="#F6F8FA" d="M47.793,158.104l6.573-0.027l0.146,35.852l10.815-0.044l0.024,5.976l-17.389,0.071L47.793,158.104z"/>
		<path fill="#F6F8FA" d="M89.493,199.762l-6.633,0.027l-1.165-7.584l-8.066,0.033l-1.105,7.593l-6.035,0.024l6.521-41.854
			l9.62-0.04L89.493,199.762z M74.441,186.558l6.334-0.026l-3.254-21.14L74.441,186.558z"/>
		<path fill="#F6F8FA" d="M98.274,169.431l0.123,30.294l-5.916,0.024l-0.171-41.827l8.246-0.034l6.854,25.009l-0.103-25.037
			l5.856-0.024l0.171,41.827l-6.752,0.027L98.274,169.431z"/>
		<path fill="#F6F8FA" d="M117.885,157.818l10.397-0.042c6.572-0.027,9.813,3.604,9.841,10.297l0.087,21.153
			c0.027,6.692-3.185,10.35-9.757,10.377l-10.397,0.042L117.885,157.818z M124.482,163.766l0.122,29.876l3.705-0.015
			c2.091-0.009,3.342-1.089,3.329-4.077l-0.089-21.75c-0.012-2.987-1.271-4.058-3.362-4.049L124.482,163.766z"/>
		<path fill="#F6F8FA" d="M151.105,157.204c6.394-0.026,9.696,3.785,9.724,10.477l0.006,1.314l-6.215,0.025l-0.008-1.732
			c-0.012-2.988-1.212-4.118-3.303-4.11c-2.092,0.009-3.281,1.149-3.27,4.137c0.036,8.604,12.889,10.165,12.938,22.116
			c0.027,6.692-3.304,10.53-9.757,10.557s-9.815-3.784-9.843-10.477l-0.01-2.569l6.215-0.025l0.012,2.987
			c0.013,2.988,1.331,4.058,3.422,4.049c2.092-0.008,3.402-1.089,3.39-4.077c-0.035-8.604-12.889-10.165-12.938-22.116
			C141.441,161.067,144.712,157.23,151.105,157.204z"/>
		<path fill="#F6F8FA" d="M183.781,183.78l0.022,5.557c0.027,6.692-3.303,10.53-9.756,10.557c-6.454,0.026-9.815-3.784-9.843-10.476
			l-0.089-21.75c-0.027-6.692,3.303-10.53,9.757-10.557c6.453-0.026,9.814,3.784,9.842,10.476l0.017,4.063l-6.214,0.025
			l-0.019-4.481c-0.012-2.988-1.331-4.118-3.423-4.109c-2.091,0.008-3.401,1.149-3.39,4.137l0.093,22.586
			c0.013,2.988,1.332,4.058,3.423,4.049c2.092-0.008,3.402-1.089,3.39-4.077l-0.024-5.975L183.781,183.78z"/>
		<path fill="#F6F8FA" d="M209.121,199.272l-6.633,0.027l-1.165-7.584l-8.066,0.033l-1.105,7.593l-6.035,0.024l6.521-41.854
			l9.62-0.04L209.121,199.272z M194.069,186.068l6.334-0.026l-3.254-21.14L194.069,186.068z"/>
		<path fill="#F6F8FA" d="M231.52,167.69l0.022,5.438c0.027,6.692-3.184,10.351-9.756,10.377l-3.107,0.013l0.063,15.715
			l-6.572,0.027l-0.171-41.827l9.68-0.04C228.251,157.366,231.492,160.998,231.52,167.69z M218.596,163.381l0.059,14.161
			l3.107-0.013c2.091-0.008,3.223-0.969,3.21-3.957l-0.025-6.274c-0.013-2.987-1.152-3.939-3.243-3.93L218.596,163.381z"/>
		<path fill="#F6F8FA" d="M241.469,174.939l9.022-0.037l0.024,5.975l-9.022,0.037l0.05,12.249l11.354-0.046l0.024,5.976
			l-17.926,0.073l-0.171-41.827l17.926-0.073l0.024,5.975l-11.354,0.047L241.469,174.939z"/>
	</g>
	<g>
		<path fill="#F6F8FA" d="M85.618,205.665l1.769-0.007l0.04,9.649l2.911-0.012l0.006,1.608l-4.68,0.019L85.618,205.665z"/>
		<path fill="#F6F8FA" d="M97.374,208.318c-0.008-1.801,0.937-2.834,2.674-2.842c1.736-0.007,2.689,1.019,2.697,2.82l0.023,5.854
			c0.008,1.801-0.938,2.834-2.674,2.841c-1.737,0.007-2.689-1.018-2.697-2.819L97.374,208.318z M99.166,214.278
			c0.004,0.804,0.358,1.108,0.922,1.106c0.563-0.002,0.916-0.31,0.912-1.114l-0.024-6.079c-0.003-0.804-0.359-1.108-0.922-1.106
			c-0.563,0.002-0.915,0.31-0.912,1.113L99.166,214.278z"/>
		<path fill="#F6F8FA" d="M114.058,216.806c-0.098-0.289-0.163-0.466-0.166-1.382l-0.008-1.769c-0.004-1.045-0.359-1.43-1.164-1.427
			l-0.611,0.002l0.019,4.583l-1.769,0.007l-0.046-11.258l2.67-0.011c1.833-0.008,2.625,0.841,2.632,2.578l0.004,0.885
			c0.005,1.158-0.362,1.916-1.149,2.289c0.887,0.366,1.179,1.217,1.184,2.392l0.008,1.737c0.002,0.547,0.021,0.949,0.198,1.366
			L114.058,216.806z M112.088,207.165l0.014,3.458l0.691-0.003c0.66-0.002,1.061-0.293,1.057-1.194l-0.004-1.109
			c-0.004-0.804-0.278-1.157-0.905-1.154L112.088,207.165z"/>
		<path fill="#F6F8FA" d="M125.003,210.248l2.429-0.01l0.007,1.608l-2.429,0.01l0.014,3.297l3.056-0.012l0.006,1.608l-4.824,0.02
			l-0.046-11.258l4.824-0.02l0.007,1.608l-3.056,0.013L125.003,210.248z"/>
		<path fill="#F6F8FA" d="M139.351,213.438l1.173-7.998l2.461-0.01l0.046,11.258l-1.673,0.007l-0.032-8.073l-1.19,8.078
			l-1.672,0.007l-1.352-7.955l0.032,7.961l-1.544,0.006l-0.046-11.258l2.461-0.01L139.351,213.438z"/>
		<path fill="#F6F8FA" d="M159.605,205.362l1.769-0.007l0.046,11.258l-1.769,0.007L159.605,205.362z"/>
		<path fill="#F6F8FA" d="M174.353,208.084l0.006,1.463c0.008,1.801-0.857,2.786-2.626,2.793l-0.837,0.003l0.017,4.23l-1.769,0.007
			l-0.046-11.258l2.605-0.01C173.472,205.305,174.345,206.283,174.353,208.084z M170.873,206.924l0.016,3.812l0.837-0.003
			c0.563-0.002,0.867-0.261,0.863-1.065l-0.007-1.688c-0.003-0.804-0.31-1.06-0.872-1.058L170.873,206.924z"/>
		<path fill="#F6F8FA" d="M183.979,205.133c1.721-0.007,2.609,1.019,2.617,2.82l0.001,0.354l-1.673,0.007l-0.002-0.466
			c-0.003-0.804-0.326-1.108-0.889-1.106c-0.563,0.002-0.883,0.309-0.88,1.113c0.01,2.316,3.47,2.736,3.482,5.952
			c0.008,1.801-0.89,2.834-2.626,2.841c-1.737,0.007-2.642-1.018-2.649-2.819l-0.003-0.692l1.673-0.007l0.003,0.804
			c0.004,0.804,0.358,1.092,0.921,1.09c0.563-0.002,0.916-0.293,0.913-1.097c-0.01-2.316-3.47-2.736-3.482-5.953
			C181.377,206.173,182.258,205.141,183.979,205.133z"/>
		<path fill="#F6F8FA" d="M195.723,205.214l0.036,8.685c0.003,0.804,0.357,1.092,0.921,1.09c0.563-0.002,0.915-0.293,0.912-1.098
			l-0.036-8.685l1.673-0.007l0.035,8.572c0.008,1.801-0.889,2.834-2.626,2.841c-1.736,0.007-2.642-1.019-2.649-2.82l-0.035-8.572
			L195.723,205.214z"/>
		<path fill="#F6F8FA" d="M210.651,213.146l1.173-7.998l2.461-0.01l0.046,11.258l-1.673,0.007l-0.032-8.074l-1.19,8.079
			l-1.672,0.007l-1.352-7.956l0.032,7.961l-1.544,0.006l-0.046-11.258l2.461-0.01L210.651,213.146z"/>
	</g>
</g>
</svg>
