<?xml version="1.0" encoding="utf-8"?>
<!-- Generator: Adobe Illustrator 16.0.0, SVG Export Plug-In . SVG Version: 6.00 Build 0)  -->
<!DOCTYPE svg PUBLIC "-//W3C//DTD SVG 1.1//EN" "http://www.w3.org/Graphics/SVG/1.1/DTD/svg11.dtd">
<svg version="1.1" id="Capa_1" xmlns="http://www.w3.org/2000/svg" xmlns:xlink="http://www.w3.org/1999/xlink" x="0px" y="0px"
	 width="300px" height="300px" viewBox="0 0 300 300" enable-background="new 0 0 300 300" xml:space="preserve">
<g>
	<g>
		<g>
			<path fill="#F6F8FA" d="M153.51,199.182c0.045-0.135,0.107-0.252,0.189-0.356c0.028-0.026,0.063-0.055,0.095-0.081
				c0.063-0.048,0.122-0.103,0.181-0.147c0.411-0.191,0.951-0.222,1.613,0.265c0.173,0.131,0.354,0.293,0.538,0.501l0.023,0.026
				l0.011-0.022l0.248-0.433l0.502-0.861l0.5-0.865h0.004l0.181-0.314c-1.221-0.25-1.649-0.794-1.757-1.313
				c-0.014-0.063-0.024-0.124-0.028-0.191c0.021-0.115,0.047-0.229,0.059-0.347c0.051-0.116,0.118-0.223,0.213-0.322
				c0.183-0.207,0.449-0.381,0.852-0.458c0.296-0.057,0.662-0.066,1.112,0l-0.129-0.721l-0.067-0.377l-0.041-0.232l-0.213-1.198
				l-0.053-0.311c-0.158,0.085-0.307,0.158-0.447,0.207c-0.956,0.381-1.533,0.145-1.888-0.215c-0.023-0.032-0.041-0.073-0.064-0.105
				c-0.036-0.071-0.077-0.139-0.117-0.208c-0.141-0.54-0.008-1.265,1.16-1.981l-2.225-1.851c-0.514,1.293-1.221,1.542-1.803,1.484
				c-0.107-0.041-0.212-0.077-0.329-0.118c-0.466-0.325-0.829-0.964-0.396-2.262h-2.906c0.444,1.315,0.063,1.956-0.403,2.28
				c-0.121,0.041-0.236,0.082-0.353,0.126c-0.569,0.041-1.261-0.218-1.763-1.482l-2.222,1.86c1.193,0.723,1.315,1.456,1.163,2.007
				c-0.025,0.041-0.047,0.081-0.068,0.121c-0.041,0.063-0.075,0.129-0.116,0.195c-0.361,0.355-0.969,0.59-1.974,0.152
				c-0.107-0.045-0.217-0.104-0.333-0.167l-0.043,0.236l-0.211,1.202l-0.045,0.266l-0.059,0.34l-0.14,0.798
				c0.353-0.047,0.647-0.056,0.899-0.028c0.497,0.047,0.817,0.229,1.031,0.446c0.115,0.118,0.197,0.249,0.26,0.381
				c0.015,0.119,0.039,0.245,0.066,0.359c-0.004,0.036-0.011,0.077-0.02,0.117c-0.095,0.528-0.508,1.091-1.755,1.35l0.163,0.277
				l0.491,0.843l0.507,0.867l0.252,0.431l0.041,0.073c0.024-0.03,0.049-0.059,0.071-0.082c0.197-0.211,0.384-0.377,0.564-0.499
				c0.636-0.438,1.158-0.392,1.559-0.207c0.038,0.035,0.072,0.063,0.115,0.101c0.055,0.044,0.111,0.092,0.171,0.129
				c0.063,0.094,0.113,0.193,0.157,0.303c0.167,0.459,0.114,1.105-0.572,1.964l2.729,0.979c0.035-1.398,0.62-1.863,1.179-2.012
				c0.117,0.011,0.233,0.009,0.354,0c0.55,0.152,1.112,0.632,1.148,1.996l2.729-0.99C153.417,200.264,153.353,199.64,153.51,199.182
				z M153.411,197.609c-0.057,0.056-0.112,0.111-0.175,0.163c-0.004,0.007-0.011,0.016-0.019,0.02
				c-0.051,0.043-0.104,0.088-0.154,0.127c-0.053,0.05-0.12,0.095-0.171,0.14c-2.128,1.583-5.16,1.159-6.757-0.959
				c-0.065-0.087-0.128-0.177-0.187-0.271c-0.156-0.239-0.293-0.491-0.402-0.75c-0.028-0.059-0.047-0.117-0.068-0.181
				c-0.027-0.059-0.048-0.118-0.063-0.181c-0.021-0.056-0.04-0.107-0.056-0.166c-0.007-0.03-0.015-0.06-0.026-0.09
				c-0.002-0.018-0.007-0.032-0.015-0.047c-0.013-0.057-0.024-0.11-0.034-0.17c-0.009-0.037-0.017-0.071-0.024-0.107
				c-0.027-0.118-0.043-0.236-0.058-0.355c-0.004-0.065-0.012-0.132-0.016-0.195c-0.017-0.196-0.019-0.388-0.008-0.588
				c0.004-0.074,0.012-0.151,0.02-0.232c0.004-0.096,0.019-0.189,0.033-0.28c0.014-0.063,0.024-0.122,0.04-0.183
				c0.021-0.118,0.047-0.226,0.077-0.335c0.019-0.056,0.036-0.118,0.051-0.179c0.026-0.097,0.062-0.188,0.1-0.284
				c0.026-0.065,0.057-0.133,0.086-0.2c0.08-0.194,0.181-0.383,0.296-0.568c0.036-0.063,0.077-0.126,0.12-0.185
				c0.038-0.063,0.085-0.122,0.128-0.189c0.063-0.085,0.125-0.162,0.196-0.243c0.043-0.053,0.09-0.104,0.141-0.156
				c0.038-0.041,0.078-0.082,0.12-0.122c0.03-0.033,0.061-0.062,0.093-0.092c0.137-0.129,0.279-0.251,0.436-0.361
				c2.137-1.59,5.15-1.157,6.747,0.961c0.065,0.087,0.132,0.181,0.188,0.272c0.052,0.075,0.101,0.148,0.144,0.226
				c0.037,0.066,0.07,0.134,0.11,0.2c0.031,0.06,0.056,0.122,0.09,0.185c0.037,0.088,0.082,0.182,0.114,0.277
				c0.041,0.095,0.075,0.188,0.104,0.277c0.015,0.059,0.033,0.123,0.053,0.182c0.014,0.054,0.028,0.117,0.04,0.172
				c0.025,0.112,0.044,0.22,0.063,0.333c0.002,0.009,0.002,0.019,0.002,0.026c0.022,0.118,0.035,0.233,0.04,0.348
				c0.017,0.194,0.021,0.388,0.009,0.583c0,0.041,0,0.082-0.009,0.123c0.004,0.011,0,0.02,0,0.028
				c-0.018,0.297-0.069,0.588-0.146,0.876c-0.017,0.06-0.035,0.12-0.057,0.179c-0.024,0.101-0.055,0.191-0.1,0.288
				c-0.004,0.025-0.011,0.043-0.023,0.063c-0.036,0.096-0.076,0.188-0.121,0.28c-0.045,0.104-0.104,0.207-0.158,0.303
				c-0.041,0.085-0.094,0.162-0.145,0.239c-0.004,0.005-0.008,0.009-0.008,0.017h-0.003c-0.04,0.073-0.097,0.145-0.147,0.214
				c-0.053,0.075-0.111,0.148-0.179,0.219c-0.047,0.069-0.11,0.136-0.173,0.199c-0.009,0.007-0.014,0.015-0.03,0.028
				c-0.028,0.034-0.065,0.075-0.1,0.111C153.417,197.603,153.417,197.606,153.411,197.609z M152.645,195.552
				c-0.192-0.144-0.392-0.188-0.584-0.163c-0.214,0-0.354,0.02-0.569-0.181c0,0-0.473-0.45-1.034-0.99
				c0.641-0.65,1.265-1.29,1.354-1.372c0.095-0.093,0.351-0.059,0.561-0.125c0.293-0.06,0.495-0.288,0.595-0.551
				c0.081-0.207,0.022-0.426-0.003-0.469c-0.078-0.12-0.101-0.058-0.101-0.058l-0.306,0.496c-0.106,0.117-0.37,0.059-0.503-0.041
				c-0.177-0.131-0.175-0.38-0.175-0.38l0.323-0.491c0.006-0.045-0.053-0.075-0.252-0.019c-0.111,0.029-0.273,0.154-0.418,0.344
				c-0.136,0.191-0.167,0.474-0.106,0.658c0,0.004-0.037,0.1-0.119,0.185l-1.379,1.315c-0.635-0.611-1.245-1.198-1.324-1.287
				c-0.089-0.095-0.06-0.351-0.124-0.558c-0.059-0.287-0.288-0.492-0.555-0.592c-0.211-0.081-0.431-0.019-0.469,0.008
				c-0.122,0.073-0.059,0.096-0.059,0.096l0.501,0.307c0.12,0.104,0.061,0.363-0.043,0.496c-0.136,0.178-0.381,0.178-0.381,0.178
				l-0.496-0.322c-0.045-0.01-0.073,0.053-0.018,0.252c0.03,0.107,0.155,0.266,0.343,0.41c0.195,0.14,0.477,0.167,0.66,0.107
				c0.008,0,0.104,0.04,0.19,0.122l1.251,1.29l-0.81,0.775c0,0-0.376,0.443-0.744,0.378c-0.188-0.041-0.495,0.117-0.609,0.262
				c-0.144,0.145-0.247,0.339-0.298,0.543c-0.071,0.3-0.035,0.429,0,0.48c0.085,0.137,0.12,0.111,0.12,0.111l0.45-0.747
				c0.104-0.085,0.378,0.019,0.548,0.145c0.229,0.173,0.225,0.361,0.225,0.361l-0.439,0.733c-0.012,0.055,0.06,0.073,0.312,0.003
				c0.14-0.037,0.324-0.159,0.501-0.398c0.145-0.197,0.195-0.393,0.164-0.585c0-0.21-0.02-0.354,0.182-0.562
				c0,0,0.42-0.433,0.93-0.958l0.833,0.859c0,0,0.447,0.379,0.375,0.735c-0.036,0.19,0.122,0.495,0.271,0.609
				c0.141,0.144,0.34,0.247,0.547,0.296c0.297,0.073,0.428,0.037,0.485,0c0.132-0.081,0.106-0.12,0.106-0.12l-0.751-0.447
				c-0.085-0.107,0.019-0.375,0.148-0.542c0.171-0.232,0.357-0.229,0.357-0.229l0.737,0.433c0.059,0.01,0.077-0.058,0.007-0.308
				C153.015,195.913,152.889,195.725,152.645,195.552z M123.27,191.124v-0.492h-1.512v3.451h1.512v-0.494h-0.957v-1.008h0.76v-0.496
				h-0.76v-0.961H123.27L123.27,191.124z M125.55,193.042v0.211c0,0.555,0.282,0.871,0.828,0.871c0.547,0,0.827-0.316,0.827-0.871
				c0-0.987-1.08-1.119-1.08-1.83c0-0.248,0.099-0.344,0.275-0.344s0.276,0.096,0.276,0.344v0.145h0.526v-0.111
				c0-0.554-0.278-0.867-0.818-0.867c-0.542,0-0.821,0.313-0.821,0.867c0,0.986,1.085,1.12,1.085,1.829
				c0,0.247-0.111,0.341-0.287,0.341s-0.288-0.089-0.288-0.341v-0.243H125.55L125.55,193.042z M130.521,194.083v-2.959h0.58v-0.492
				h-1.715v0.492h0.58v2.959H130.521z M133.601,194.083v-0.52h-0.536v0.52H133.601z M164.209,194.244v-3.453h-0.373
				c-0.086,0.233-0.181,0.433-0.613,0.433v0.384h0.433v2.637H164.209z M166.855,193.325v0.09c0,0.555,0.285,0.869,0.829,0.869
				c0.579,0,0.849-0.314,0.849-0.9v-1.765c0-0.555-0.298-0.869-0.843-0.869c-0.546,0-0.838,0.314-0.838,0.869v0.628
				c0,0.515,0.202,0.79,0.61,0.79c0.25,0,0.425-0.105,0.517-0.307v0.634c0,0.331-0.109,0.429-0.312,0.429
				c-0.177,0-0.287-0.098-0.287-0.345v-0.123H166.855z M167.69,192.546c-0.177,0-0.289-0.092-0.289-0.339v-0.622
				c0-0.247,0.112-0.339,0.289-0.339c0.18,0,0.289,0.092,0.289,0.339v0.622C167.979,192.454,167.87,192.546,167.69,192.546z
				 M170.854,193.415c0,0.555,0.308,0.869,0.865,0.869c0.562,0,0.87-0.314,0.87-0.869v-0.271c0-0.333-0.103-0.591-0.342-0.724
				c0.226-0.123,0.342-0.354,0.342-0.695v-0.106c0-0.555-0.309-0.869-0.87-0.869c-0.558,0-0.865,0.314-0.865,0.869v0.106
				c0,0.346,0.112,0.572,0.341,0.695c-0.24,0.133-0.341,0.391-0.341,0.724V193.415z M171.409,191.639
				c0-0.312,0.136-0.397,0.311-0.397c0.178,0,0.315,0.086,0.315,0.397v0.194c0,0.274-0.138,0.361-0.315,0.361
				c-0.181,0-0.311-0.087-0.311-0.361V191.639z M171.409,193.078c0-0.272,0.114-0.388,0.311-0.388c0.199,0,0.315,0.119,0.315,0.388
				v0.322c-0.004,0.308-0.138,0.393-0.315,0.393c-0.175,0-0.311-0.085-0.311-0.393V193.078z M174.921,193.127v0.288
				c0,0.55,0.28,0.869,0.827,0.869c0.543,0,0.828-0.319,0.828-0.869v-0.771c0-0.508-0.208-0.788-0.617-0.788
				c-0.222,0-0.385,0.089-0.483,0.252l0.045-0.825h0.964v-0.495h-1.464l-0.1,2.003h0.524v-0.104c0-0.244,0.111-0.34,0.288-0.34
				c0.179,0,0.288,0.096,0.288,0.34v0.762c0,0.247-0.109,0.336-0.288,0.336c-0.177,0-0.288-0.089-0.288-0.336v-0.321H174.921
				L174.921,193.127z M125.238,206.594l0.099-0.203l0.044-6.588l-0.615-0.288l-5.08,4.238l-0.095,0.203l1.392,0.653l0.659-0.542
				l2.202,1.027l-0.002,0.85L125.238,206.594z M122.683,203.064l1.319-1.159l-0.044,1.758L122.683,203.064z M130.979,202.086
				l-2.21-0.728l-1.938,5.828l2.21,0.724C132.867,209.153,134.797,203.361,130.979,202.086z M129.814,203.209l0.714,0.232
				c1.87,0.613,0.832,3.729-1.039,3.116l-0.708-0.235L129.814,203.209z M136.723,207.193l-0.728-3.685l-1.489-0.296l-0.045,0.233
				l1.412,6.365l0.656,0.127l3.749-5.333l0.045-0.23l-1.486-0.297l-2.069,3.124L136.723,207.193z M145.225,206.206
				c0.04-0.473,0.08-0.942,0.121-1.396c-1.442-0.122-2.417-0.207-3.841-0.331c-0.177,2.024-0.357,4.067-0.536,6.112
				c1.424,0.118,2.48,0.209,3.922,0.335c0.041-0.46,0.082-0.931,0.122-1.385c-0.924-0.082-1.454-0.126-2.358-0.203
				c0.035-0.367,0.063-0.717,0.096-1.072l2.092,0.181c0.041-0.461,0.082-0.924,0.122-1.389l-2.096-0.181l0.076-0.862
				C143.853,206.088,144.311,206.125,145.225,206.206z M152.45,210.875l-0.185-6.139c-0.541,0.014-1.077,0.03-1.619,0.044
				l0.094,3.004l-3.214-2.937l-0.574,0.018l0.187,6.156c0.536-0.014,1.085-0.032,1.631-0.046l-0.092-3.013l3.201,2.931
				L152.45,210.875z M157.948,203.979l-4.542,0.644c0.067,0.457,0.132,0.92,0.2,1.386l1.5-0.212l0.673,4.684
				c0.514-0.074,1.031-0.145,1.545-0.218l-0.672-4.684l1.493-0.211C158.077,204.898,158.011,204.438,157.948,203.979z
				 M162.64,207.825c-0.448,0.111-0.977-0.006-1.103-0.492l-1.008-3.939c-0.481,0.121-0.983,0.252-1.465,0.369l1.016,3.967
				c0.338,1.304,1.687,1.771,2.906,1.46c1.231-0.311,2.174-1.353,1.84-2.66l-1.016-3.966c-0.48,0.121-0.977,0.247-1.459,0.368
				l1.009,3.941C163.482,207.355,163.082,207.712,162.64,207.825z M170.869,206.539l1.648-0.628l-0.084-0.211l-1.831-1.385
				c1.077-1.539-0.379-4.084-2.648-3.231c-0.841,0.32-1.697,0.649-2.528,0.97c0.743,1.912,1.479,3.817,2.219,5.721
				c0.475-0.181,0.979-0.374,1.474-0.563l-0.654-1.685l0.764-0.291L170.869,206.539z M167.961,204.227
				c-0.177-0.46-0.374-0.966-0.555-1.431c0.348-0.134,0.707-0.277,1.054-0.404c0.843-0.31,1.353,1.128,0.555,1.432L167.961,204.227z
				 M177.659,203.324c-0.214-0.414-0.433-0.835-0.642-1.238c-0.821,0.422-1.295,0.661-2.102,1.076
				c-0.17-0.329-0.332-0.636-0.499-0.959l1.867-0.956c-0.214-0.415-0.429-0.828-0.643-1.238l-1.866,0.958l-0.404-0.77
				c0.811-0.415,1.217-0.624,2.033-1.043c-0.217-0.42-0.436-0.842-0.646-1.244c-1.288,0.658-2.159,1.104-3.431,1.754
				c0.938,1.809,1.885,3.629,2.831,5.451C175.435,204.466,176.377,203.981,177.659,203.324z M178.979,102.582L171.302,108
				l-19.185-25.844l-16.532,20.841l-4.377-4.35l3.828,5.183l-12.346,13.891c-1.125-5.972,6.339-13.34,6.339-13.34l2.124-5.819
				l-0.573-0.564l-18.693,18.756l-13.021,10.753l7.134-8.667v-2.786l5.887,0.7l-6.345-2.083l-22.909,28.345h134.736L178.979,102.582
				z M178.871,103.552l17.467,18.24l-8.892-6.986l-2.673,2.916C178.538,112.586,178.871,103.552,178.871,103.552z M159.286,106.2
				c-2.11-1.535-14.126,8.885-14.126,8.885c2.336-4.865,2.336-24.041,2.336-24.041l4.779-7.506l36.266,46.74
				C187.712,129.589,161.382,107.702,159.286,106.2z M209.06,189.501c0.446-0.96,0.865-1.925,1.262-2.89h-7.992
				c-9.986,18.729-29.821,31.485-52.647,31.485c-22.83,0-42.663-12.756-52.648-31.485h-9.171c0.606,0.217,1.114,0.514,1.538,0.88
				c0.347,0.798,0.707,1.596,1.082,2.384c0.873,3.352-2.549,5.6-2.549,5.6s-0.44,0.474-1.631,1.381
				c-1.02,0.775-0.198,3.313,1.343,3.313c0.176,0,0.376-0.041,0.573-0.119c2.322-0.905,4.041-1.291,5.37-1.291
				c1.022,0,1.816,0.226,2.512,0.607c0.485,0.68,0.991,1.352,1.509,2.021c1.629,3.138-1.29,6.085-1.29,6.085
				s-0.329,0.55-1.302,1.684c-0.794,0.906,0.338,2.988,1.717,2.988c0.268,0,0.544-0.082,0.826-0.261
				c2.758-1.821,4.653-2.508,6.173-2.508c0.495,0,0.954,0.077,1.383,0.213c0.642,0.595,1.295,1.177,1.951,1.738
				c2.165,2.711-0.038,6.138-0.038,6.138s-0.199,0.613-0.924,1.924c-0.535,0.979,0.755,2.605,2.015,2.605
				c0.367,0,0.735-0.138,1.041-0.451c2.851-2.893,4.776-3.837,6.495-3.837c0.105,0,0.218,0.011,0.317,0.011
				c0.843,0.504,1.686,0.975,2.539,1.438c2.474,2.229,1.084,5.888,1.084,5.888s-0.062,0.637-0.489,2.07
				c-0.295,0.975,1.013,2.159,2.186,2.159c0.478,0,0.934-0.201,1.253-0.692c2.31-3.595,4.059-4.879,5.825-5.137
				c0.941,0.328,1.895,0.623,2.859,0.897c2.839,1.678,2.25,5.511,2.25,5.511s0.069,0.644-0.046,2.13
				c-0.072,0.897,1.119,1.7,2.19,1.7c0.628,0,1.213-0.282,1.477-0.981c1.514-4.001,2.951-5.609,4.627-6.23
				c0.993,0.119,1.975,0.226,2.978,0.296c3.128,1.054,3.363,4.919,3.363,4.919s0.199,0.609,0.388,2.1
				c0.108,0.751,1.083,1.264,2.015,1.264c0.813,0,1.597-0.384,1.736-1.312c0.626-4.192,1.69-6.072,3.175-7.029
				c1.055-0.089,2.096-0.196,3.127-0.337c3.193,0.454,4.211,4.102,4.211,4.102s0.317,0.563,0.824,1.975
				c0.205,0.568,0.924,0.865,1.666,0.865c1.001,0,2.055-0.544,1.984-1.698c-0.254-4.146,0.369-6.196,1.572-7.449
				c1.078-0.323,2.15-0.681,3.205-1.055c0.05-0.009,0.099-0.009,0.145-0.009c3.033,0,4.677,3.161,4.677,3.161
				s0.44,0.474,1.225,1.749c0.234,0.392,0.735,0.569,1.267,0.569c1.143,0,2.502-0.799,2.124-2.129
				c-1.11-3.98-0.942-6.119-0.028-7.598c0.994-0.544,1.967-1.118,2.928-1.717c0.359-0.081,0.693-0.122,1.022-0.122
				c2.521,0,4.358,2.218,4.358,2.218s0.517,0.378,1.561,1.461c0.217,0.239,0.555,0.347,0.912,0.347c1.221,0,2.805-1.194,2.084-2.572
				c-1.936-3.677-2.214-5.804-1.619-7.444c0.736-0.631,1.45-1.271,2.155-1.931c0.107-0.108,0.219-0.216,0.325-0.323
				c0.647-0.317,1.306-0.435,1.919-0.435c2.077,0,3.802,1.362,3.802,1.362s0.589,0.267,1.83,1.112
				c0.189,0.131,0.396,0.189,0.631,0.189c1.267,0,2.934-1.667,1.83-2.987c-2.629-3.162-3.354-5.186-3.147-6.894
				c0.717-0.934,1.399-1.881,2.055-2.837c0.895-0.662,1.877-0.865,2.779-0.865c1.601,0,2.92,0.658,2.92,0.658
				s0.637,0.13,2.014,0.709c0.129,0.052,0.27,0.08,0.396,0.08c1.302,0,2.876-2.19,1.441-3.324
				C210.367,193.001,209.227,191.197,209.06,189.501z M94.323,93.283l-1.384-1.61l1.168-0.99c3.035-2.572-0.986-7.248-4.027-4.686
				c-0.936,0.789-1.878,1.59-2.79,2.366c1.812,2.102,3.609,4.199,5.412,6.293C93.236,94.206,93.778,93.744,94.323,93.283z
				 M90.147,88.425c0.372-0.314,0.771-0.67,1.159-0.984c0.951-0.788,2.434,1.047,1.549,1.801l-1.162,0.983
				C91.256,89.713,90.59,88.939,90.147,88.425z M101.79,87.521l-1.368-2.024l0.921-0.612l2.553,1.233l1.978-1.319l-0.174-0.255
				l-2.827-1.277c0.954-2.346-1.736-5.265-4.464-3.465c-1.007,0.673-2.037,1.361-3.035,2.023c1.553,2.298,3.098,4.587,4.645,6.874
				C100.592,88.318,101.194,87.916,101.79,87.521z M98.204,82.217c0.417-0.274,0.846-0.579,1.268-0.845
				c1.013-0.661,2.118,1.082,1.159,1.721l-1.267,0.842C98.995,83.385,98.585,82.776,98.204,82.217z M112.758,81.169
				c-0.292-0.555-0.587-1.119-0.875-1.665c-1.108,0.574-1.745,0.903-2.831,1.464c-0.233-0.441-0.45-0.861-0.674-1.292l2.511-1.302
				l-0.876-1.669l-2.515,1.304l-0.546-1.039c1.09-0.563,1.637-0.85,2.739-1.415c-0.3-0.568-0.595-1.136-0.886-1.681
				c-1.731,0.897-2.904,1.504-4.614,2.391c1.278,2.437,2.563,4.89,3.855,7.344C109.757,82.725,111.025,82.068,112.758,81.169z
				 M117.515,79.125l-1.302-3.456l2.3,1.115l0.224-0.084l1.009-2.345l1.304,3.454c0.681-0.252,1.36-0.506,2.04-0.758l-2.932-7.775
				l-0.713,0.265l-1.844,4.528l-4.324-2.234l-0.733,0.271l2.932,7.776C116.154,79.631,116.835,79.379,117.515,79.125z
				 M125.07,69.866l1.14,4.439l-1.027,0.261l0.462,1.799l4.099-1.035l-0.463-1.8l-1.027,0.26l-1.139-4.438l0.946-0.238l-0.46-1.79
				l-3.936,0.991l0.459,1.79L125.07,69.866z M135.471,74.392c1.696-0.256,3.1-1.535,2.824-3.337l-0.844-5.458
				c-0.66,0.103-1.342,0.205-2.015,0.307l0.839,5.423c0.099,0.669-0.483,1.091-1.093,1.185c-0.614,0.094-1.312-0.137-1.416-0.803
				l-0.837-5.425c-0.659,0.103-1.352,0.205-2.012,0.308l0.841,5.459C132.036,73.851,133.789,74.648,135.471,74.392z M144.123,73.396
				l-0.09-3.69l1.809,1.804l0.235-0.005l1.729-1.889l0.09,3.69c0.728-0.017,1.456-0.036,2.18-0.053l-0.2-8.3l-0.761,0.016
				l-3.237,3.674l-3.349-3.516l-0.786,0.02l0.198,8.302C142.669,73.431,143.394,73.413,144.123,73.396z M160.336,71.794l1.095,0.174
				l1.024,2.635l2.35,0.371l0.045-0.302l-1.19-2.853c2.313-1.065,2.347-5.029-0.888-5.56c-1.196-0.189-2.421-0.385-3.61-0.577
				c-0.435,2.735-0.884,5.455-1.323,8.179c0.684,0.107,1.4,0.224,2.106,0.335L160.336,71.794z M160.969,67.893
				c0.495,0.077,1.013,0.148,1.508,0.239c1.196,0.203,0.809,2.227-0.333,2.044l-1.504-0.241
				C160.742,69.281,160.86,68.554,160.969,67.893z M172.833,75.171c-1.206-0.333-1.896-0.522-3.074-0.847
				c0.132-0.479,0.257-0.935,0.388-1.401l2.73,0.751c0.169-0.604,0.336-1.21,0.507-1.815l-2.732-0.747l0.315-1.129
				c1.182,0.324,1.772,0.489,2.971,0.816c0.174-0.614,0.344-1.231,0.51-1.824c-1.885-0.516-3.156-0.867-5.016-1.381
				c-0.738,2.645-1.481,5.314-2.225,7.979c1.859,0.515,3.238,0.894,5.118,1.408C172.496,76.378,172.666,75.763,172.833,75.171z
				 M177.974,76.745l1.426,0.569c3.711,1.472,6.007-4.245,2.307-5.726c-1.141-0.451-2.291-0.908-3.412-1.353
				c-1.029,2.568-2.062,5.133-3.093,7.69c0.654,0.263,1.32,0.522,1.982,0.788L177.974,76.745z M179.569,72.781
				c0.456,0.181,0.957,0.366,1.416,0.563c1.142,0.466,0.196,2.629-0.884,2.196l-1.416-0.563
				C178.938,74.354,179.318,73.408,179.569,72.781z M182.49,80.853l1.836,0.977l0.928-0.688l2.899,1.539l-0.063,1.144l1.84,0.976
				l0.145-0.271l0.518-8.888l-0.81-0.429l-7.147,5.37L182.49,80.853z M188.586,78.386l-0.184,2.373l-1.682-0.892L188.586,78.386z
				 M195.8,86.481l-0.884-0.584l2.557-3.813l0.813,0.537l1.032-1.539l-3.382-2.235l-1.031,1.534l0.813,0.539l-2.559,3.813
				l-0.879-0.581l-1.038,1.546l3.521,2.331L195.8,86.481z M198.519,90.845l1.55-1.888l0.861,0.693l-0.44,2.788l1.848,1.493
				l0.195-0.239l0.403-3.062c2.543,0.222,4.563-3.192,2.029-5.254c-0.942-0.76-1.902-1.54-2.839-2.291
				c-1.759,2.147-3.508,4.29-5.259,6.426C197.404,89.942,197.964,90.397,198.519,90.845z M202.581,85.889
				c0.388,0.314,0.802,0.632,1.182,0.958c0.937,0.769-0.425,2.328-1.313,1.605l-1.185-0.955
				C201.688,86.983,202.152,86.412,202.581,85.889z"/>
		</g>
	</g>
	<g>
		<g>
			<path fill="#F6F8FA" d="M66.522,148.506h-4.867c-0.226,0-0.429,0.086-0.6,0.254c-0.173,0.17-0.295,0.351-0.372,0.54
				l-4.521,17.508L51.639,149.3c-0.077-0.189-0.199-0.37-0.37-0.54c-0.172-0.168-0.372-0.254-0.6-0.254h-4.868
				c-0.534,0-0.801,0.265-0.801,0.794v32.518c0,0.533,0.267,0.795,0.801,0.795h5.494c0.536,0,0.803-0.262,0.803-0.795v-15.12
				l3.777,13.526c0.077,0.193,0.173,0.284,0.284,0.284c0.116,0,0.209-0.095,0.286-0.284l3.777-13.526v15.12
				c0,0.533,0.269,0.795,0.803,0.795h5.495c0.531,0,0.801-0.262,0.801-0.795V149.3C67.322,148.771,67.056,148.506,66.522,148.506z
				 M84.095,150.21c-0.653-0.644-1.411-1.153-2.294-1.533c-0.876-0.38-1.809-0.571-2.799-0.571h-2.179
				c-0.989,0-1.926,0.191-2.802,0.571c-0.875,0.375-1.641,0.89-2.289,1.533c-0.651,0.646-1.163,1.404-1.544,2.276
				c-0.384,0.871-0.574,1.8-0.574,2.783v20.58c0,0.985,0.19,1.913,0.574,2.786c0.381,0.871,0.895,1.629,1.544,2.272
				c0.648,0.646,1.412,1.155,2.289,1.538c0.878,0.377,1.813,0.563,2.802,0.563h2.179c0.99,0,1.927-0.187,2.799-0.563
				c0.883-0.383,1.641-0.893,2.294-1.538c0.646-0.644,1.162-1.401,1.542-2.272c0.382-0.873,0.574-1.801,0.574-2.786v-20.58
				c0-0.983-0.192-1.912-0.574-2.783C85.257,151.614,84.738,150.855,84.095,150.21z M79.513,175.563
				c0,0.377-0.131,0.697-0.397,0.968c-0.27,0.263-0.595,0.396-0.977,0.396H77.68c-0.381,0-0.705-0.134-0.973-0.396
				c-0.269-0.271-0.4-0.591-0.4-0.968v-20.01c0-0.376,0.132-0.699,0.4-0.965c0.268-0.266,0.592-0.397,0.973-0.397h0.459
				c0.381,0,0.707,0.132,0.977,0.397c0.267,0.266,0.397,0.589,0.397,0.965V175.563z M103.727,148.506h-5.098
				c-0.532,0-0.798,0.265-0.798,0.794v26.264c0,0.377-0.137,0.697-0.403,0.968c-0.266,0.263-0.592,0.396-0.972,0.396h-0.457
				c-0.38,0-0.704-0.134-0.973-0.396c-0.271-0.271-0.404-0.591-0.404-0.968V149.3c0-0.529-0.267-0.794-0.803-0.794h-5.091
				c-0.535,0-0.803,0.265-0.803,0.794v26.545c0,0.987,0.192,1.913,0.573,2.791c0.379,0.871,0.899,1.625,1.545,2.269
				c0.649,0.647,1.411,1.157,2.291,1.537c0.875,0.378,1.812,0.568,2.805,0.568h2.174c0.989,0,1.925-0.19,2.803-0.568
				c0.877-0.378,1.641-0.89,2.289-1.537c0.651-0.644,1.163-1.397,1.545-2.269c0.382-0.878,0.572-1.801,0.572-2.791V149.3
				C104.524,148.771,104.258,148.506,103.727,148.506z M124.331,148.506h-5.098c-0.532,0-0.802,0.265-0.802,0.794v16.488
				l-5.951-16.545c-0.077-0.191-0.222-0.357-0.429-0.512c-0.209-0.152-0.43-0.226-0.658-0.226h-3.775
				c-0.536,0-0.803,0.265-0.803,0.794v32.518c0,0.533,0.267,0.795,0.803,0.795h5.092c0.532,0,0.802-0.262,0.802-0.795v-14.781
				l6.064,14.837c0.079,0.19,0.224,0.357,0.432,0.515c0.209,0.149,0.433,0.225,0.656,0.225h3.669c0.532,0,0.8-0.262,0.8-0.795V149.3
				C125.129,148.771,124.865,148.506,124.331,148.506z M143.218,154.359v-5.06c0-0.529-0.267-0.794-0.803-0.794h-14.766
				c-0.535,0-0.802,0.265-0.802,0.794v5.06c0,0.529,0.267,0.798,0.802,0.798h4.007v26.66c0,0.227,0.084,0.417,0.254,0.57
				c0.176,0.149,0.358,0.225,0.547,0.225h5.094c0.531,0,0.803-0.262,0.803-0.795v-26.66h4.062
				C142.951,155.157,143.218,154.889,143.218,154.359z M155.525,149.3c-0.079-0.529-0.387-0.794-0.918-0.794h-7.554
				c-0.536,0-0.843,0.265-0.918,0.794l-4.293,32.518c-0.075,0.533,0.154,0.795,0.687,0.795h5.211c0.496,0,0.78-0.262,0.857-0.795
				l0.459-5.57h3.548l0.459,5.57c0.073,0.533,0.357,0.795,0.857,0.795h5.207c0.532,0,0.761-0.262,0.685-0.795L155.525,149.3z
				 M149.515,169.88l1.087-12.568h0.455l1.086,12.568H149.515z M167.199,148.506h-5.097c-0.531,0-0.798,0.265-0.798,0.794v32.518
				c0,0.533,0.267,0.795,0.798,0.795h5.097c0.531,0,0.802-0.262,0.802-0.795V149.3C168.001,148.771,167.73,148.506,167.199,148.506z
				 M188.378,148.506h-5.098c-0.531,0-0.802,0.265-0.802,0.794v16.488l-5.951-16.545c-0.077-0.191-0.222-0.357-0.429-0.512
				c-0.209-0.152-0.428-0.226-0.658-0.226h-3.775c-0.536,0-0.802,0.265-0.802,0.794v32.518c0,0.533,0.266,0.795,0.802,0.795h5.088
				c0.532,0,0.803-0.262,0.803-0.795v-14.781l6.066,14.837c0.076,0.19,0.221,0.357,0.431,0.515c0.207,0.149,0.433,0.225,0.657,0.225
				h3.668c0.532,0,0.798-0.262,0.798-0.795V149.3C189.176,148.771,188.91,148.506,188.378,148.506z M206.521,150.607
				c-0.649-0.644-1.411-1.155-2.29-1.534c-0.878-0.379-1.813-0.567-2.807-0.567h-8.586c-0.532,0-0.798,0.265-0.798,0.794v32.518
				c0,0.417,0.104,0.654,0.314,0.71c0.207,0.055,0.429,0.085,0.658,0.085h8.411c0.994,0,1.929-0.189,2.807-0.568
				c0.879-0.379,1.641-0.892,2.29-1.536c0.646-0.646,1.164-1.403,1.542-2.276c0.379-0.867,0.576-1.795,0.576-2.782v-4.661
				c0-0.872-0.138-1.666-0.403-2.387c-0.27-0.721-0.668-1.347-1.205-1.878c-0.536-0.529-1.218-0.947-2.059-1.25
				c0.8-0.379,1.486-0.871,2.059-1.478c1.068-1.175,1.608-2.636,1.608-4.376v-3.755c0-0.982-0.197-1.91-0.576-2.783
				C207.685,152.014,207.167,151.256,206.521,150.607z M201.941,175.165c0,0.379-0.137,0.702-0.402,0.969
				c-0.267,0.266-0.591,0.397-0.973,0.397h-1.83v-8.016h1.83c0.382,0,0.706,0.134,0.973,0.4c0.266,0.265,0.402,0.587,0.402,0.966
				V175.165z M201.941,160.954c0,0.377-0.137,0.702-0.402,0.968c-0.267,0.267-0.591,0.396-0.973,0.396h-1.83v-7.729h1.83
				c0.382,0,0.706,0.13,0.973,0.396c0.266,0.266,0.402,0.586,0.402,0.969V160.954z M216.537,148.506h-5.097
				c-0.532,0-0.799,0.265-0.799,0.794v32.518c0,0.533,0.267,0.795,0.799,0.795h5.097c0.533,0,0.801-0.262,0.801-0.795V149.3
				C217.338,148.771,217.07,148.506,216.537,148.506z M238.972,148.506h-5.721c-0.536,0-0.901,0.226-1.091,0.68l-5.265,10.061v-9.95
				c0-0.527-0.269-0.794-0.802-0.794h-5.096c-0.532,0-0.798,0.267-0.798,0.794v32.518c0,0.533,0.266,0.799,0.798,0.799h5.096
				c0.533,0,0.802-0.266,0.802-0.799v-7.502l0.973-1.819l4.176,9.436c0.079,0.193,0.211,0.351,0.404,0.481
				c0.188,0.132,0.398,0.198,0.628,0.198h5.667c0.229,0,0.401-0.084,0.517-0.256c0.114-0.168,0.133-0.349,0.056-0.538l-7.674-18.021
				l7.783-14.496c0.08-0.188,0.08-0.367,0-0.537C239.348,148.587,239.199,148.506,238.972,148.506z M254.198,155.157
				c0.532,0,0.802-0.269,0.802-0.798v-5.06c0-0.529-0.27-0.794-0.802-0.794h-12.422c-0.535,0-0.802,0.265-0.802,0.794v32.518
				c0,0.533,0.267,0.795,0.802,0.795h12.422c0.532,0,0.802-0.262,0.802-0.795v-5.06c0-0.529-0.27-0.795-0.802-0.795h-6.528v-7.677
				h5.667c0.537,0,0.802-0.267,0.802-0.795v-5.06c0-0.531-0.265-0.798-0.802-0.798h-5.667v-6.479h6.528V155.157z"/>
		</g>
	</g>
</g>
</svg>
