<?xml version="1.0" encoding="UTF-8"?>
<svg width="22px" height="20px" viewBox="0 0 22 20" version="1.1" xmlns="http://www.w3.org/2000/svg" xmlns:xlink="http://www.w3.org/1999/xlink">
    <!-- Generator: Sketch 48.2 (47327) - http://www.bohemiancoding.com/sketch -->
    <title>cart</title>
    <desc>Created with Sketch.</desc>
    <defs></defs>
    <g id="Bundle---Product" stroke="none" stroke-width="1" fill="none" fill-rule="evenodd" transform="translate(-1049.000000, -46.000000)">
        <g id="cart" transform="translate(1049.000000, 46.000000)" fill="#000000" fill-rule="nonzero">
            <path d="M8.23500047,15.0000501 C6.99434605,15.0083213 5.99451765,16.0193137 6.00002262,17.2599834 C6.0055276,18.5006532 7.0142882,19.5027333 8.25496717,19.4999946 C9.49564615,19.4972559 10.4999729,18.4907321 10.5000005,17.2500501 C10.5000138,16.6507049 10.2609029,16.0761236 9.8356963,15.6537329 C9.41048966,15.2313422 8.83433229,14.9960544 8.23500047,15.0000501 Z M8.23500047,18.0000501 C7.82078691,18.0000501 7.48500047,17.6642636 7.48500047,17.2500501 C7.48500047,16.8358365 7.82078691,16.5000501 8.23500047,16.5000501 C8.64921404,16.5000501 8.98500047,16.8358365 8.98500047,17.2500501 C8.98500047,17.6642636 8.64921404,18.0000501 8.23500047,18.0000501 Z" id="Shape"></path>
            <path d="M14.2350005,15.0000501 C12.9943461,15.0083213 11.9945176,16.0193137 12.0000226,17.2599834 C12.0055276,18.5006532 13.0142882,19.5027333 14.2549672,19.4999946 C15.4956461,19.4972559 16.4999729,18.4907321 16.5000005,17.2500501 C16.5000138,16.6507049 16.2609029,16.0761236 15.8356963,15.6537329 C15.4104897,15.2313422 14.8343323,14.9960544 14.2350005,15.0000501 Z M14.2350005,18.0000501 C13.8207869,18.0000501 13.4850005,17.6642636 13.4850005,17.2500501 C13.4850005,16.8358365 13.8207869,16.5000501 14.2350005,16.5000501 C14.649214,16.5000501 14.9850005,16.8358365 14.9850005,17.2500501 C14.9850005,17.6642636 14.649214,18.0000501 14.2350005,18.0000501 Z" id="Shape"></path>
            <path d="M4.065,2.25 L3.645,0 L0.75,0 C0.335786438,0 0,0.335786438 0,0.75 C0,1.16421356 0.335786438,1.5 0.75,1.5 L2.4,1.5 L4.755,14.16 L16.755,14.16 C17.1692136,14.16 17.505,13.8242136 17.505,13.41 C17.505,12.9957864 17.1692136,12.66 16.755,12.66 L6,12.66 L5.745,11.25 L18.36,11.25 C19.0982696,11.2607339 19.7345589,10.7326138 19.86,10.005 L21.18,2.25 L4.065,2.25 Z M18.36,9.75 L5.46,9.75 L4.41,3.75 L19.41,3.75 L18.36,9.75 Z" id="Shape"></path>
        </g>
    </g>
</svg>