<svg id="Layer_1" data-name="Layer 1" xmlns="http://www.w3.org/2000/svg" viewBox="0 0 344 326"><defs><style>.cls-1,.cls-2,.cls-3,.cls-4,.cls-5{fill:none;}.cls-1,.cls-2{stroke:#495b63;}.cls-1{stroke-miterlimit:10;}.cls-1,.cls-2,.cls-3,.cls-5{stroke-width:2.5px;}.cls-2,.cls-3,.cls-4,.cls-5{stroke-linecap:round;stroke-linejoin:round;}.cls-3{stroke:#627a84;}.cls-4{stroke:#e95656;stroke-width:3px;}.cls-5{stroke:#748084;}</style></defs><title>feature_table_phone_scanner</title><rect class="cls-1" x="120.26" y="75.63" width="98.37" height="174.26" rx="5" ry="5"/><line class="cls-2" x1="120.26" y1="97.67" x2="218.63" y2="97.67"/><line class="cls-3" x1="217.83" y1="226.29" x2="210.33" y2="226.29"/><line class="cls-2" x1="151.38" y1="226.29" x2="120.26" y2="226.29"/><line class="cls-2" x1="217.68" y1="226.29" x2="151.38" y2="226.29"/><line class="cls-2" x1="160.94" y1="151.24" x2="160.94" y2="184.08"/><line class="cls-2" x1="148.67" y1="151.24" x2="148.67" y2="184.08"/><line class="cls-2" x1="155.51" y1="151.24" x2="155.51" y2="184.08"/><line class="cls-2" x1="170.36" y1="151.24" x2="170.36" y2="184.08"/><line class="cls-2" x1="175.35" y1="151.24" x2="175.35" y2="184.08"/><line class="cls-2" x1="180.38" y1="151.24" x2="180.38" y2="184.08"/><line class="cls-2" x1="187.67" y1="151.24" x2="187.67" y2="184.08"/><polyline class="cls-4" points="151.67 146.83 141.17 146.83 141.17 152.33"/><polyline class="cls-4" points="193.17 152.33 193.17 146.83 187.67 146.83"/><polyline class="cls-4" points="187.67 190.83 193.17 190.83 193.17 180.33"/><polyline class="cls-4" points="142.17 180.33 142.17 190.83 152.67 190.83"/><line class="cls-5" x1="161.35" y1="86.67" x2="177.54" y2="86.67"/><line class="cls-2" x1="212.96" y1="215.25" x2="184.53" y2="215.25"/><line class="cls-2" x1="162.78" y1="215.25" x2="158.62" y2="215.25"/><line class="cls-2" x1="153" y1="215.25" x2="127.37" y2="215.25"/></svg>