<svg id="Layer_1" data-name="Layer 1" xmlns="http://www.w3.org/2000/svg" viewBox="0 0 344 326"><defs><style>.cls-1,.cls-3,.cls-4,.cls-5{fill:none;}.cls-1,.cls-5,.cls-6{stroke:#495b63;}.cls-1{stroke-miterlimit:10;}.cls-1,.cls-3,.cls-4,.cls-5,.cls-6{stroke-width:2.5px;}.cls-2{fill:#d6f2d6;}.cls-3{stroke:#bdccd4;}.cls-3,.cls-4,.cls-5,.cls-6{stroke-linecap:round;stroke-linejoin:round;}.cls-4{stroke:#4ed87f;}.cls-6{fill:#fff;}</style></defs><title>feature_table_order_threshold</title><rect class="cls-1" x="37.26" y="52.87" width="278.4" height="199.13" rx="5" ry="5"/><rect class="cls-2" x="37.26" y="194.67" width="278.4" height="13"/><line class="cls-3" x1="62.71" y1="78.67" x2="91.02" y2="100"/><line class="cls-4" x1="315.67" y1="194.67" x2="297.08" y2="194.67"/><line class="cls-3" x1="184.71" y1="158.67" x2="227" y2="172.75"/><line class="cls-3" x1="140.71" y1="133.67" x2="173.71" y2="155"/><line class="cls-4" x1="280.08" y1="194.67" x2="108.21" y2="194.67"/><line class="cls-4" x1="93.73" y1="194.67" x2="89.23" y2="194.67"/><line class="cls-4" x1="81.98" y1="194.67" x2="66.21" y2="194.67"/><line class="cls-4" x1="62.14" y1="194.67" x2="37.26" y2="194.67"/><circle class="cls-5" cx="178.96" cy="156.78" r="5.25"/><circle class="cls-5" cx="233.14" cy="173.61" r="5.25"/><line class="cls-3" x1="101.71" y1="106.67" x2="130.02" y2="128"/><rect class="cls-1" x="37.26" y="52.87" width="278.4" height="199.13" rx="5" ry="5"/><circle class="cls-5" cx="96.46" cy="102.76" r="5.25"/><circle class="cls-5" cx="135.27" cy="131" r="5.25"/><line class="cls-3" x1="239.71" y1="175.67" x2="282" y2="189.75"/><circle class="cls-6" cx="288.57" cy="194.67" r="5.25"/><circle class="cls-5" cx="57.46" cy="76.76" r="5.25"/></svg>