<svg id="Layer_1" data-name="Layer 1" xmlns="http://www.w3.org/2000/svg" viewBox="0 0 344 326"><defs><style>.cls-1,.cls-4{fill:none;stroke:#495b63;stroke-width:2.5px;}.cls-1{stroke-miterlimit:10;}.cls-2{fill:#627a84;}.cls-3{fill:#67707f;}.cls-4{stroke-linecap:round;stroke-linejoin:round;}.cls-5{fill:#4ed87f;}.cls-6{fill:#bcbcbc;}</style></defs><title>feature_table_order_combined_order</title><rect class="cls-1" x="38.83" y="212.88" width="74.79" height="74.79" rx="5" ry="5"/><path class="cls-2" d="M74,234.57a4.54,4.54,0,0,1-.47,2.05,8.56,8.56,0,0,1-1.22,1.8,16.69,16.69,0,0,1-1.65,1.64q-0.91.79-1.73,1.54a19.59,19.59,0,0,0-1.49,1.51,4.61,4.61,0,0,0-.93,1.57h6.52A1.4,1.4,0,0,1,74,245a1.28,1.28,0,0,1,.41,1,1.17,1.17,0,0,1-.41,1,1.44,1.44,0,0,1-.92.32H64.43A1.49,1.49,0,0,1,63.5,247a1.15,1.15,0,0,1-.42-1,0.31,0.31,0,0,0,0-.09,0.12,0.12,0,0,1,0-.09,5.7,5.7,0,0,1,.64-2.57,10.3,10.3,0,0,1,1.47-2.12,17.77,17.77,0,0,1,1.88-1.8q1-.84,1.88-1.61a11.46,11.46,0,0,0,1.43-1.5,2.47,2.47,0,0,0,.57-1.54,2.44,2.44,0,0,0-.47-1.58,2.2,2.2,0,0,0-1.77-.58,5.21,5.21,0,0,0-1.08.09,2.35,2.35,0,0,0-.77.31,2.87,2.87,0,0,0-.64.57q-0.3.35-.65,0.84a1.62,1.62,0,0,1-.8.57,1.45,1.45,0,0,1-1.15-.11,1.18,1.18,0,0,1-.66-0.68,1.4,1.4,0,0,1,0-.84,3.49,3.49,0,0,1,.43-1,4.53,4.53,0,0,1,1-1.16,6.53,6.53,0,0,1,1.74-1,6.89,6.89,0,0,1,2.54-.42,7.35,7.35,0,0,1,2.47.37,4.39,4.39,0,0,1,1.65,1,3.61,3.61,0,0,1,.91,1.51A6.46,6.46,0,0,1,74,234.57Z"/><path class="cls-2" d="M77.41,236.54a9.25,9.25,0,0,1,.32-2.42,5.69,5.69,0,0,1,3.11-3.73,7,7,0,0,1,3.08-.61,7.08,7.08,0,0,1,3.1.61,5.78,5.78,0,0,1,2,1.57,6,6,0,0,1,1.11,2.16,8.91,8.91,0,0,1,.34,2.42v4.33a7.94,7.94,0,0,1-.45,2.7,6.07,6.07,0,0,1-1.28,2.14,6,6,0,0,1-2.06,1.41,7.12,7.12,0,0,1-2.79.51,7,7,0,0,1-2.76-.51,5.78,5.78,0,0,1-3.33-3.54,8.17,8.17,0,0,1-.43-2.7v-4.33Zm3.11,4.62a3.81,3.81,0,0,0,.81,2.66,4.33,4.33,0,0,0,5.23,0,4,4,0,0,0,.77-2.66v-4.89a4,4,0,0,0-.77-2.66,4.37,4.37,0,0,0-5.26,0,3.9,3.9,0,0,0-.78,2.66v4.89Z"/><path class="cls-3" d="M70.24,259a0.55,0.55,0,0,1,.2-0.46,0.66,0.66,0,0,1,.85,0,0.55,0.55,0,0,1,.2.46l0,0.79a3.72,3.72,0,0,1,1,.32,3.3,3.3,0,0,1,.69.46,2,2,0,0,1,.42.49,0.87,0.87,0,0,1,.14.42,0.92,0.92,0,0,1-.18.59,0.73,0.73,0,0,1-.61.23,0.91,0.91,0,0,1-.45-0.11,2.53,2.53,0,0,1-.37-0.25l-0.27-.19a1.58,1.58,0,0,0-.38-0.19l-0.08,2.75q0.49,0.19,1,.42a3.71,3.71,0,0,1,.88.57,2.49,2.49,0,0,1,.86,2,2.66,2.66,0,0,1-.76,2,3.25,3.25,0,0,1-2.1.86l0,0.62a0.55,0.55,0,0,1-.2.47,0.68,0.68,0,0,1-.85,0,0.55,0.55,0,0,1-.2-0.47l0-.69a6.3,6.3,0,0,1-.87-0.24,4.27,4.27,0,0,1-.84-0.39,2.32,2.32,0,0,1-.62-0.54,1.07,1.07,0,0,1-.24-0.69,0.69,0.69,0,0,1,.82-0.74,1,1,0,0,1,.47.15,3.06,3.06,0,0,1,.38.29,2.25,2.25,0,0,0,.93.52l0.08-2.79q-0.51-.21-1-0.44a4.17,4.17,0,0,1-.9-0.58,2.62,2.62,0,0,1-.65-0.81,2.44,2.44,0,0,1-.24-1.14,2.83,2.83,0,0,1,.77-2.06,3.16,3.16,0,0,1,2.18-.87Zm-1.1,3.57a1,1,0,0,0,.27.72,2.59,2.59,0,0,0,.71.5l0.06-2.38a1.23,1.23,0,0,0-.76.36A1.12,1.12,0,0,0,69.14,262.58Zm3.08,4.81a1,1,0,0,0-.25-0.7,2.32,2.32,0,0,0-.66-0.51l-0.06,2.33a1.26,1.26,0,0,0,.72-0.35A1.07,1.07,0,0,0,72.22,267.39Z"/><path class="cls-3" d="M77.94,261.42l-0.24,2.21h1.51a2.89,2.89,0,0,1,2.18.8,3,3,0,0,1,.77,2.17V267a3.33,3.33,0,0,1-.2,1.11,2.82,2.82,0,0,1-.62,1,3.13,3.13,0,0,1-1.09.73,3.76,3.76,0,0,1-1.58.25,4.3,4.3,0,0,1-1.14-.14,3.47,3.47,0,0,1-.91-0.38A2,2,0,0,1,76,269a1.07,1.07,0,0,1-.21-0.63,0.7,0.7,0,0,1,.18-0.5,0.6,0.6,0,0,1,.45-0.19,1.21,1.21,0,0,1,.47.09,3.16,3.16,0,0,1,.47.26,2.63,2.63,0,0,0,.53.27,2.08,2.08,0,0,0,.73.11,1.79,1.79,0,0,0,1.22-.37,1.27,1.27,0,0,0,.42-1v-0.49a1.25,1.25,0,0,0-.42-1,1.94,1.94,0,0,0-1.22-.33H77.15a1.36,1.36,0,0,1-.91-0.17,0.77,0.77,0,0,1-.23-0.76l0.47-4.43h4.26a1.09,1.09,0,0,1,.68.23,0.77,0.77,0,0,1,.3.65,0.7,0.7,0,0,1-.24.5,0.82,0.82,0,0,1-.59.24h-3Z"/><rect class="cls-1" x="38.83" y="132" width="74.79" height="74.79" rx="5" ry="5"/><path class="cls-2" d="M74,153.69a4.54,4.54,0,0,1-.47,2.05,8.56,8.56,0,0,1-1.22,1.8,16.69,16.69,0,0,1-1.65,1.64q-0.91.79-1.73,1.54a19.59,19.59,0,0,0-1.49,1.51,4.61,4.61,0,0,0-.93,1.57h6.52a1.4,1.4,0,0,1,.92.34,1.28,1.28,0,0,1,.41,1,1.17,1.17,0,0,1-.41,1,1.44,1.44,0,0,1-.92.32H64.43a1.49,1.49,0,0,1-.93-0.32,1.15,1.15,0,0,1-.42-1,0.31,0.31,0,0,0,0-.09,0.12,0.12,0,0,1,0-.09,5.7,5.7,0,0,1,.64-2.57,10.3,10.3,0,0,1,1.47-2.12,17.77,17.77,0,0,1,1.88-1.8q1-.84,1.88-1.61a11.46,11.46,0,0,0,1.43-1.5,2.47,2.47,0,0,0,.57-1.54,2.44,2.44,0,0,0-.47-1.58,2.2,2.2,0,0,0-1.77-.58,5.21,5.21,0,0,0-1.08.09,2.35,2.35,0,0,0-.77.31,2.87,2.87,0,0,0-.64.57q-0.3.35-.65,0.84a1.62,1.62,0,0,1-.8.57,1.45,1.45,0,0,1-1.15-.11,1.18,1.18,0,0,1-.66-0.68,1.4,1.4,0,0,1,0-.84,3.49,3.49,0,0,1,.43-1,4.53,4.53,0,0,1,1-1.16,6.53,6.53,0,0,1,1.74-1,6.89,6.89,0,0,1,2.54-.42,7.35,7.35,0,0,1,2.47.37,4.39,4.39,0,0,1,1.65,1,3.61,3.61,0,0,1,.91,1.51A6.46,6.46,0,0,1,74,153.69Z"/><path class="cls-2" d="M77.41,155.66a9.25,9.25,0,0,1,.32-2.42,5.69,5.69,0,0,1,3.11-3.73,7,7,0,0,1,3.08-.61,7.08,7.08,0,0,1,3.1.61,5.78,5.78,0,0,1,2,1.57,6,6,0,0,1,1.11,2.16,8.91,8.91,0,0,1,.34,2.42V160a7.94,7.94,0,0,1-.45,2.7,6.07,6.07,0,0,1-1.28,2.14,6,6,0,0,1-2.06,1.41,7.12,7.12,0,0,1-2.79.51,7,7,0,0,1-2.76-.51,5.78,5.78,0,0,1-3.33-3.54,8.17,8.17,0,0,1-.43-2.7v-4.33Zm3.11,4.62a3.81,3.81,0,0,0,.81,2.66,4.33,4.33,0,0,0,5.23,0,4,4,0,0,0,.77-2.66v-4.89a4,4,0,0,0-.77-2.66,4.37,4.37,0,0,0-5.26,0,3.9,3.9,0,0,0-.78,2.66v4.89Z"/><path class="cls-3" d="M70.24,178.13a0.55,0.55,0,0,1,.2-0.46,0.66,0.66,0,0,1,.85,0,0.55,0.55,0,0,1,.2.46l0,0.79a3.72,3.72,0,0,1,1,.32,3.3,3.3,0,0,1,.69.46,2,2,0,0,1,.42.49,0.87,0.87,0,0,1,.14.42,0.92,0.92,0,0,1-.18.59,0.73,0.73,0,0,1-.61.23,0.91,0.91,0,0,1-.45-0.11,2.53,2.53,0,0,1-.37-0.25l-0.27-.19a1.58,1.58,0,0,0-.38-0.19l-0.08,2.75q0.49,0.19,1,.42a3.71,3.71,0,0,1,.88.57,2.49,2.49,0,0,1,.86,2,2.66,2.66,0,0,1-.76,2,3.25,3.25,0,0,1-2.1.86l0,0.62a0.55,0.55,0,0,1-.2.47,0.68,0.68,0,0,1-.85,0,0.55,0.55,0,0,1-.2-0.47l0-.69a6.3,6.3,0,0,1-.87-0.24,4.27,4.27,0,0,1-.84-0.39,2.32,2.32,0,0,1-.62-0.54,1.07,1.07,0,0,1-.24-0.69,0.69,0.69,0,0,1,.82-0.74,1,1,0,0,1,.47.15,3.06,3.06,0,0,1,.38.29,2.25,2.25,0,0,0,.93.52l0.08-2.79q-0.51-.21-1-0.44a4.17,4.17,0,0,1-.9-0.58,2.62,2.62,0,0,1-.65-0.81,2.44,2.44,0,0,1-.24-1.14,2.83,2.83,0,0,1,.77-2.06,3.16,3.16,0,0,1,2.18-.87Zm-1.1,3.57a1,1,0,0,0,.27.72,2.59,2.59,0,0,0,.71.5l0.06-2.38a1.23,1.23,0,0,0-.76.36A1.12,1.12,0,0,0,69.14,181.7Zm3.08,4.81a1,1,0,0,0-.25-0.7,2.32,2.32,0,0,0-.66-0.51l-0.06,2.33a1.26,1.26,0,0,0,.72-0.35A1.07,1.07,0,0,0,72.22,186.51Z"/><path class="cls-3" d="M77.94,180.54l-0.24,2.21h1.51a2.89,2.89,0,0,1,2.18.8,3,3,0,0,1,.77,2.17v0.36a3.33,3.33,0,0,1-.2,1.11,2.82,2.82,0,0,1-.62,1,3.13,3.13,0,0,1-1.09.73,3.76,3.76,0,0,1-1.58.25,4.3,4.3,0,0,1-1.14-.14,3.47,3.47,0,0,1-.91-0.38,2,2,0,0,1-.6-0.54,1.07,1.07,0,0,1-.21-0.63A0.7,0.7,0,0,1,76,187a0.6,0.6,0,0,1,.45-0.19,1.21,1.21,0,0,1,.47.09,3.16,3.16,0,0,1,.47.26,2.63,2.63,0,0,0,.53.27,2.08,2.08,0,0,0,.73.11,1.79,1.79,0,0,0,1.22-.37,1.27,1.27,0,0,0,.42-1v-0.49a1.25,1.25,0,0,0-.42-1,1.94,1.94,0,0,0-1.22-.33H77.15a1.36,1.36,0,0,1-.91-0.17,0.77,0.77,0,0,1-.23-0.76l0.47-4.43h4.26a1.09,1.09,0,0,1,.68.23,0.77,0.77,0,0,1,.3.65,0.7,0.7,0,0,1-.24.5,0.82,0.82,0,0,1-.59.24h-3Z"/><rect class="cls-1" x="39.58" y="50.79" width="74.79" height="74.79" rx="5" ry="5"/><path class="cls-2" d="M74.78,72.48a4.54,4.54,0,0,1-.47,2.05,8.56,8.56,0,0,1-1.22,1.8A16.69,16.69,0,0,1,71.44,78q-0.91.79-1.73,1.54A19.59,19.59,0,0,0,68.23,81a4.61,4.61,0,0,0-.93,1.57h6.52a1.4,1.4,0,0,1,.92.34,1.28,1.28,0,0,1,.41,1,1.17,1.17,0,0,1-.41,1,1.44,1.44,0,0,1-.92.32H65.18a1.49,1.49,0,0,1-.93-0.32,1.15,1.15,0,0,1-.42-1,0.31,0.31,0,0,0,0-.09,0.12,0.12,0,0,1,0-.09,5.7,5.7,0,0,1,.64-2.57,10.3,10.3,0,0,1,1.47-2.12,17.77,17.77,0,0,1,1.88-1.8q1-.84,1.88-1.61a11.46,11.46,0,0,0,1.43-1.5,2.47,2.47,0,0,0,.57-1.54,2.44,2.44,0,0,0-.47-1.58,2.2,2.2,0,0,0-1.77-.58,5.21,5.21,0,0,0-1.08.09,2.35,2.35,0,0,0-.77.31,2.87,2.87,0,0,0-.64.57q-0.3.35-.65,0.84a1.62,1.62,0,0,1-.8.57,1.45,1.45,0,0,1-1.15-.11,1.18,1.18,0,0,1-.66-0.68,1.4,1.4,0,0,1,0-.84,3.49,3.49,0,0,1,.43-1,4.53,4.53,0,0,1,1-1.16,6.53,6.53,0,0,1,1.74-1,6.89,6.89,0,0,1,2.54-.42,7.35,7.35,0,0,1,2.47.37,4.39,4.39,0,0,1,1.65,1,3.61,3.61,0,0,1,.91,1.51A6.46,6.46,0,0,1,74.78,72.48Z"/><path class="cls-2" d="M78.16,74.46A9.25,9.25,0,0,1,78.49,72,5.69,5.69,0,0,1,81.6,68.3a7,7,0,0,1,3.08-.61,7.08,7.08,0,0,1,3.1.61,5.78,5.78,0,0,1,2,1.57A6,6,0,0,1,90.92,72a8.91,8.91,0,0,1,.34,2.42v4.33a7.94,7.94,0,0,1-.45,2.7,6.07,6.07,0,0,1-1.28,2.14A6,6,0,0,1,87.47,85a7.12,7.12,0,0,1-2.79.51A7,7,0,0,1,81.92,85a5.78,5.78,0,0,1-3.33-3.54,8.17,8.17,0,0,1-.43-2.7V74.46Zm3.11,4.62a3.81,3.81,0,0,0,.81,2.66,4.33,4.33,0,0,0,5.23,0,4,4,0,0,0,.77-2.66V74.18a4,4,0,0,0-.77-2.66,4.37,4.37,0,0,0-5.26,0,3.9,3.9,0,0,0-.78,2.66v4.89Z"/><path class="cls-3" d="M71,96.92a0.55,0.55,0,0,1,.2-0.46,0.66,0.66,0,0,1,.85,0,0.55,0.55,0,0,1,.2.46l0,0.79a3.72,3.72,0,0,1,1,.32,3.3,3.3,0,0,1,.69.46,2,2,0,0,1,.42.49,0.87,0.87,0,0,1,.14.42,0.92,0.92,0,0,1-.18.59,0.73,0.73,0,0,1-.61.23,0.91,0.91,0,0,1-.45-0.11,2.53,2.53,0,0,1-.37-0.25l-0.27-.19a1.58,1.58,0,0,0-.38-0.19l-0.08,2.75q0.49,0.19,1,.42a3.71,3.71,0,0,1,.88.57,2.49,2.49,0,0,1,.86,2,2.66,2.66,0,0,1-.76,2A3.25,3.25,0,0,1,72,108l0,0.62a0.55,0.55,0,0,1-.2.47,0.68,0.68,0,0,1-.85,0,0.55,0.55,0,0,1-.2-0.47l0-.69a6.3,6.3,0,0,1-.87-0.24,4.27,4.27,0,0,1-.84-0.39,2.32,2.32,0,0,1-.62-0.54,1.07,1.07,0,0,1-.24-0.69,0.69,0.69,0,0,1,.82-0.74,1,1,0,0,1,.47.15,3.06,3.06,0,0,1,.38.29,2.25,2.25,0,0,0,.93.52l0.08-2.79q-0.51-.21-1-0.44a4.17,4.17,0,0,1-.9-0.58,2.62,2.62,0,0,1-.65-0.81,2.44,2.44,0,0,1-.24-1.14,2.83,2.83,0,0,1,.77-2.06A3.16,3.16,0,0,1,71,97.63Zm-1.1,3.57a1,1,0,0,0,.27.72,2.59,2.59,0,0,0,.71.5l0.06-2.38a1.23,1.23,0,0,0-.76.36A1.12,1.12,0,0,0,69.89,100.49ZM73,105.3a1,1,0,0,0-.25-0.7,2.32,2.32,0,0,0-.66-0.51L72,106.42a1.26,1.26,0,0,0,.72-0.35A1.07,1.07,0,0,0,73,105.3Z"/><path class="cls-3" d="M78.69,99.34l-0.24,2.21H80a2.89,2.89,0,0,1,2.18.8,3,3,0,0,1,.77,2.17v0.36a3.33,3.33,0,0,1-.2,1.11,2.82,2.82,0,0,1-.62,1,3.13,3.13,0,0,1-1.09.73,3.76,3.76,0,0,1-1.58.25,4.3,4.3,0,0,1-1.14-.14,3.47,3.47,0,0,1-.91-0.38,2,2,0,0,1-.6-0.54,1.07,1.07,0,0,1-.21-0.63,0.7,0.7,0,0,1,.18-0.5,0.6,0.6,0,0,1,.45-0.19,1.21,1.21,0,0,1,.47.09,3.16,3.16,0,0,1,.47.26,2.63,2.63,0,0,0,.53.27,2.08,2.08,0,0,0,.73.11,1.79,1.79,0,0,0,1.22-.37,1.27,1.27,0,0,0,.42-1v-0.49a1.25,1.25,0,0,0-.42-1,1.94,1.94,0,0,0-1.22-.33H77.9a1.36,1.36,0,0,1-.91-0.17,0.77,0.77,0,0,1-.23-0.76l0.47-4.43H81.5a1.09,1.09,0,0,1,.68.23,0.77,0.77,0,0,1,.3.65,0.7,0.7,0,0,1-.24.5,0.82,0.82,0,0,1-.59.24h-3Z"/><line class="cls-4" x1="137.39" y1="169.4" x2="195.25" y2="169.4"/><line class="cls-4" x1="188.17" y1="163.67" x2="195.25" y2="169.4"/><line class="cls-4" x1="188.34" y1="175.25" x2="195.25" y2="169.4"/><rect class="cls-1" x="221.17" y="132" width="97.5" height="97.5" rx="5" ry="5"/><path class="cls-2" d="M260.22,177.3a8.74,8.74,0,0,1-3.75-.74,7.15,7.15,0,0,1-2.57-2,8.2,8.2,0,0,1-1.48-2.93,12.89,12.89,0,0,1-.48-3.54V163.3a11.87,11.87,0,0,1,.53-3.56,8.4,8.4,0,0,1,1.6-3,7.64,7.64,0,0,1,2.7-2,9.1,9.1,0,0,1,3.81-.74,9.65,9.65,0,0,1,2.54.32,7.81,7.81,0,0,1,2,.85,4.48,4.48,0,0,1,1.34,1.2,2.4,2.4,0,0,1,.48,1.41,1.44,1.44,0,0,1-.41,1.09,1.4,1.4,0,0,1-1,.39,3.23,3.23,0,0,1-1.06-.16,5.09,5.09,0,0,1-1.06-.55,5.78,5.78,0,0,0-1.2-.6,5,5,0,0,0-1.69-.25,4.29,4.29,0,0,0-3.24,1.29,5.66,5.66,0,0,0-1.23,4v1.3a6.45,6.45,0,0,1,2.19-1.29,9.17,9.17,0,0,1,3.14-.48,6.08,6.08,0,0,1,6.59,6.63v1.16a7.44,7.44,0,0,1-.44,2.49,6.31,6.31,0,0,1-1.39,2.26,7,7,0,0,1-2.42,1.62A8.26,8.26,0,0,1,260.22,177.3Zm-4.05-7.3a4.22,4.22,0,0,0,1.3,2.75,4.12,4.12,0,0,0,2.71.85,4,4,0,0,0,2.73-.83,2.84,2.84,0,0,0,.93-2.24v-1.45q0-3.07-3.67-3.07a4.31,4.31,0,0,0-1.5.26,3.68,3.68,0,0,0-1.27.78,3.63,3.63,0,0,0-.86,1.27,4.39,4.39,0,0,0-.32,1.71Z"/><path class="cls-2" d="M272.06,162.84a12.06,12.06,0,0,1,.42-3.16,7.42,7.42,0,0,1,4.05-4.87,9.11,9.11,0,0,1,4-.79,9.23,9.23,0,0,1,4,.79,7.53,7.53,0,0,1,2.64,2,7.87,7.87,0,0,1,1.45,2.82,11.63,11.63,0,0,1,.44,3.16v5.64a10.37,10.37,0,0,1-.58,3.53,7.91,7.91,0,0,1-1.67,2.79,7.76,7.76,0,0,1-2.68,1.83,9.27,9.27,0,0,1-3.63.67,9.17,9.17,0,0,1-3.6-.67,7.53,7.53,0,0,1-4.34-4.62,10.65,10.65,0,0,1-.56-3.53v-5.64Zm4.05,6a5,5,0,0,0,1.06,3.47,5.65,5.65,0,0,0,6.82,0,5.15,5.15,0,0,0,1-3.47v-6.38a5.15,5.15,0,0,0-1-3.47,5.7,5.7,0,0,0-6.86,0,5.09,5.09,0,0,0-1,3.47v6.38Z"/><path class="cls-5" d="M262.12,192.13a0.72,0.72,0,0,1,.26-0.6,0.85,0.85,0,0,1,1.11,0,0.72,0.72,0,0,1,.26.6l0,1a4.9,4.9,0,0,1,1.26.42,4.35,4.35,0,0,1,.9.6,2.65,2.65,0,0,1,.54.64,1.14,1.14,0,0,1,.19.54,1.2,1.2,0,0,1-.24.77,1,1,0,0,1-.79.3,1.18,1.18,0,0,1-.59-0.14,3.31,3.31,0,0,1-.48-0.33l-0.35-.25a2.12,2.12,0,0,0-.49-0.25l-0.1,3.58q0.64,0.25,1.28.54a4.83,4.83,0,0,1,1.14.74,3.24,3.24,0,0,1,1.12,2.58,3.47,3.47,0,0,1-1,2.58,4.24,4.24,0,0,1-2.74,1.12l0,0.8a0.71,0.71,0,0,1-.26.61,0.89,0.89,0,0,1-1.11,0,0.71,0.71,0,0,1-.26-0.61l0-.9a8.45,8.45,0,0,1-1.13-.31,5.73,5.73,0,0,1-1.09-.5,3,3,0,0,1-.81-0.7,1.4,1.4,0,0,1-.32-0.89,0.9,0.9,0,0,1,1.07-1,1.24,1.24,0,0,1,.62.2,3.88,3.88,0,0,1,.49.38,3,3,0,0,0,1.21.68l0.1-3.64q-0.66-.27-1.31-0.58a5.44,5.44,0,0,1-1.17-.75,3.43,3.43,0,0,1-.84-1.06,3.19,3.19,0,0,1-.32-1.48,3.69,3.69,0,0,1,1-2.68,4.11,4.11,0,0,1,2.84-1.14Zm-1.44,4.65a1.28,1.28,0,0,0,.35.94,3.39,3.39,0,0,0,.93.65l0.08-3.11a1.61,1.61,0,0,0-1,.47A1.46,1.46,0,0,0,260.68,196.78Zm4,6.27a1.35,1.35,0,0,0-.33-0.92,3,3,0,0,0-.86-0.67l-0.08,3a1.66,1.66,0,0,0,.94-0.45A1.39,1.39,0,0,0,264.69,203.05Z"/><path class="cls-5" d="M275.4,201.41v-2.57a0.89,0.89,0,0,1,.33-0.67,1.3,1.3,0,0,1,.9-0.3,1.17,1.17,0,0,1,.83.3,0.9,0.9,0,0,1,.32.67v2.57h0.66a1,1,0,0,1,1.19,1.07,1,1,0,0,1-.3.75,1.27,1.27,0,0,1-.89.28h-0.66v2.06a0.9,0.9,0,0,1-.32.67,1.17,1.17,0,0,1-.83.3,1.3,1.3,0,0,1-.9-0.3,0.88,0.88,0,0,1-.33-0.67v-2.06h-5.47a0.93,0.93,0,0,1-.67-0.3,1,1,0,0,1-.3-0.77c0-.1,0-0.19,0-0.29a0.68,0.68,0,0,1,.11-0.31l4.28-8.45A1,1,0,0,1,274,193a1.22,1.22,0,0,1,.89.2,1.12,1.12,0,0,1,.56.66,0.87,0.87,0,0,1-.08.74l-3.56,6.85h3.6Z"/><path class="cls-6" d="M254.91,214.27a1.68,1.68,0,0,1-.18.76,3.16,3.16,0,0,1-.45.67,6.21,6.21,0,0,1-.61.6l-0.64.57a7.19,7.19,0,0,0-.55.56,1.71,1.71,0,0,0-.34.58h2.41a0.52,0.52,0,0,1,.34.13,0.47,0.47,0,0,1,.15.38,0.43,0.43,0,0,1-.15.36,0.53,0.53,0,0,1-.34.12h-3.19a0.55,0.55,0,0,1-.34-0.12,0.43,0.43,0,0,1-.16-0.36,0.11,0.11,0,0,0,0,0,0,0,0,0,1,0,0,2.11,2.11,0,0,1,.24-1,3.82,3.82,0,0,1,.54-0.79,6.64,6.64,0,0,1,.69-0.67l0.7-.59a4.33,4.33,0,0,0,.53-0.55,0.92,0.92,0,0,0,.21-0.57,0.9,0.9,0,0,0-.17-0.58,0.81,0.81,0,0,0-.66-0.21,1.91,1.91,0,0,0-.4,0,0.89,0.89,0,0,0-.29.11,1.09,1.09,0,0,0-.23.21l-0.24.31a0.6,0.6,0,0,1-.3.21,0.54,0.54,0,0,1-.42,0,0.44,0.44,0,0,1-.25-0.25,0.52,0.52,0,0,1,0-.31,1.31,1.31,0,0,1,.16-0.36,1.7,1.7,0,0,1,.39-0.43,2.42,2.42,0,0,1,.65-0.36,2.54,2.54,0,0,1,.94-0.16,2.72,2.72,0,0,1,.92.13,1.63,1.63,0,0,1,.61.37,1.34,1.34,0,0,1,.33.56A2.39,2.39,0,0,1,254.91,214.27Z"/><path class="cls-6" d="M256.16,215a3.41,3.41,0,0,1,.12-0.89,2.1,2.1,0,0,1,1.15-1.38,2.59,2.59,0,0,1,1.14-.22,2.63,2.63,0,0,1,1.15.22,2.14,2.14,0,0,1,.75.58,2.24,2.24,0,0,1,.41.8,3.3,3.3,0,0,1,.13.89v1.6a2.94,2.94,0,0,1-.17,1,2.25,2.25,0,0,1-.48.79,2.2,2.2,0,0,1-.76.52,2.87,2.87,0,0,1-2,0,2.14,2.14,0,0,1-1.23-1.31,3,3,0,0,1-.16-1V215Zm1.15,1.71a1.41,1.41,0,0,0,.3,1,1.61,1.61,0,0,0,1.94,0,1.46,1.46,0,0,0,.28-1V214.9a1.46,1.46,0,0,0-.28-1,1.62,1.62,0,0,0-1.95,0,1.44,1.44,0,0,0-.29,1v1.81Z"/><path class="cls-6" d="M262.15,213.79a1.17,1.17,0,0,1,.12-0.53,1.19,1.19,0,0,1,.32-0.4,1.52,1.52,0,0,1,.48-0.26,1.84,1.84,0,0,1,.58-0.09,1.8,1.8,0,0,1,.57.09,1.52,1.52,0,0,1,.48.26,1.14,1.14,0,0,1,.32.4,1.21,1.21,0,0,1,.12.53v0.66a1.21,1.21,0,0,1-.12.53,1.15,1.15,0,0,1-.32.4,1.5,1.5,0,0,1-.48.25,1.77,1.77,0,0,1-.57.09,1.81,1.81,0,0,1-.58-0.09,1.5,1.5,0,0,1-.48-0.25,1.2,1.2,0,0,1-.32-0.4,1.17,1.17,0,0,1-.12-0.53v-0.66Zm1,0.62a0.46,0.46,0,0,0,.15.37,0.57,0.57,0,0,0,.39.13,0.54,0.54,0,0,0,.36-0.13,0.46,0.46,0,0,0,.16-0.37v-0.58a0.46,0.46,0,0,0-.16-0.37,0.54,0.54,0,0,0-.36-0.13,0.57,0.57,0,0,0-.39.13,0.46,0.46,0,0,0-.15.37v0.58Zm3.52-1.65a0.47,0.47,0,0,1,.28-0.23,0.55,0.55,0,0,1,.44,0,0.49,0.49,0,0,1,.28.29,0.39,0.39,0,0,1,0,.33l-3.1,5.62a0.52,0.52,0,0,1-.29.25,0.53,0.53,0,0,1-.43,0,0.57,0.57,0,0,1-.29-0.3,0.42,0.42,0,0,1,0-.35Zm-0.59,4.4a1.21,1.21,0,0,1,.11-0.53,1.15,1.15,0,0,1,.32-0.41,1.53,1.53,0,0,1,.47-0.25,1.92,1.92,0,0,1,1.16,0,1.48,1.48,0,0,1,.47.25,1.18,1.18,0,0,1,.31.41,1.21,1.21,0,0,1,.11.53v0.66a1.2,1.2,0,0,1-.11.53,1.18,1.18,0,0,1-.31.41,1.44,1.44,0,0,1-.47.25,1.92,1.92,0,0,1-1.16,0,1.49,1.49,0,0,1-.47-0.25,1.15,1.15,0,0,1-.32-0.41,1.2,1.2,0,0,1-.11-0.53v-0.66Zm1,0.62a0.46,0.46,0,0,0,.15.36,0.58,0.58,0,0,0,.75,0,0.45,0.45,0,0,0,.16-0.36V217.2a0.45,0.45,0,0,0-.16-0.37,0.58,0.58,0,0,0-.75,0,0.46,0.46,0,0,0-.15.37v0.58Z"/><path class="cls-6" d="M272.65,216.19a2.86,2.86,0,0,1,.14-0.89,2.06,2.06,0,0,1,.41-0.73,1.88,1.88,0,0,1,.7-0.5,2.63,2.63,0,0,1,1-.18,2.6,2.6,0,0,1,1,.18,1.93,1.93,0,0,1,.71.5,2,2,0,0,1,.42.73,2.86,2.86,0,0,1,.13.89v0.69a2.65,2.65,0,0,1-.13.85,1.9,1.9,0,0,1-.42.7,2,2,0,0,1-.71.48,2.68,2.68,0,0,1-1,.17,2.71,2.71,0,0,1-1-.17,1.88,1.88,0,0,1-1.11-1.17,2.65,2.65,0,0,1-.14-0.85v-0.69Zm1.18,0.7a1.17,1.17,0,0,0,.29.85,1.22,1.22,0,0,0,1.6,0,1.17,1.17,0,0,0,.29-0.85v-0.72a1.29,1.29,0,0,0-.29-0.91,1.19,1.19,0,0,0-1.6,0,1.29,1.29,0,0,0-.29.91v0.72Z"/><path class="cls-6" d="M278.75,214v-0.3a1.64,1.64,0,0,1,.46-1.32,2,2,0,0,1,1.33-.38,2.17,2.17,0,0,1,.42,0,1.23,1.23,0,0,1,.35.13,0.75,0.75,0,0,1,.24.21,0.44,0.44,0,0,1,.09.27,0.51,0.51,0,0,1-.12.35,0.44,0.44,0,0,1-.34.13,1.08,1.08,0,0,1-.31,0,1.25,1.25,0,0,0-.35,0,0.68,0.68,0,0,0-.49.14,0.67,0.67,0,0,0-.14.48V214h0.77a0.42,0.42,0,0,1,.3.13,0.43,0.43,0,0,1,.13.33,0.46,0.46,0,0,1-.13.34,0.42,0.42,0,0,1-.3.13h-0.77v3.71a0.44,0.44,0,0,1-.15.33,0.57,0.57,0,0,1-.41.14,0.63,0.63,0,0,1-.44-0.14,0.43,0.43,0,0,1-.16-0.33v-3.71H278.4a0.42,0.42,0,0,1-.3-0.12,0.46,0.46,0,0,1-.13-0.34,0.43,0.43,0,0,1,.13-0.33,0.42,0.42,0,0,1,.3-0.12h0.35Z"/><path class="cls-6" d="M282.74,214v-0.3a1.64,1.64,0,0,1,.46-1.32,2,2,0,0,1,1.33-.38,2.17,2.17,0,0,1,.42,0,1.23,1.23,0,0,1,.35.13,0.75,0.75,0,0,1,.24.21,0.44,0.44,0,0,1,.09.27,0.51,0.51,0,0,1-.12.35,0.44,0.44,0,0,1-.34.13,1.08,1.08,0,0,1-.31,0,1.25,1.25,0,0,0-.35,0,0.68,0.68,0,0,0-.49.14,0.67,0.67,0,0,0-.14.48V214h0.77a0.42,0.42,0,0,1,.3.13,0.43,0.43,0,0,1,.13.33,0.46,0.46,0,0,1-.13.34,0.42,0.42,0,0,1-.3.13H283.9v3.71a0.44,0.44,0,0,1-.15.33,0.57,0.57,0,0,1-.41.14,0.63,0.63,0,0,1-.44-0.14,0.43,0.43,0,0,1-.16-0.33v-3.71h-0.35a0.42,0.42,0,0,1-.3-0.12,0.46,0.46,0,0,1-.13-0.34,0.43,0.43,0,0,1,.13-0.33,0.42,0.42,0,0,1,.3-0.12h0.35Z"/></svg>