<svg id="Layer_1" data-name="Layer 1" xmlns="http://www.w3.org/2000/svg" viewBox="0 0 344 326"><defs><style>.cls-1{fill:#7fdd9e;}.cls-2{fill:#f47d7d;}.cls-3,.cls-5,.cls-6,.cls-7,.cls-8{fill:none;}.cls-3,.cls-6,.cls-7{stroke:#495b63;}.cls-3,.cls-6{stroke-miterlimit:10;}.cls-3,.cls-6,.cls-7,.cls-8{stroke-width:2.5px;}.cls-4{fill:#ef5b5b;}.cls-5{stroke:#fff;stroke-width:3px;}.cls-5,.cls-6,.cls-7,.cls-8{stroke-linecap:round;}.cls-5,.cls-7,.cls-8{stroke-linejoin:round;}.cls-8{stroke:#4ed87f;}.cls-9{fill:#3aba62;}</style></defs><title>feature_table_order_dashboard-05</title><polygon class="cls-1" points="265 196 265 228.25 138 228 138 161 161.22 177.73 192.06 187.47 227.07 202.94 265 196"/><path class="cls-2" d="M106,53H37.79A5,5,0,0,0,33,58.2V247.34A4.57,4.57,0,0,0,37.79,252H106V53Z"/><rect class="cls-3" x="32.8" y="53.2" width="278.4" height="199.13" rx="5" ry="5"/><path class="cls-4" d="M71,199c-7.61,8-22.21,19.68-38,31.51v16.83A4.57,4.57,0,0,0,37.79,252H106V150.25C93.9,169,79.74,189.82,71,199Z"/><rect class="cls-3" x="32.8" y="53.2" width="278.4" height="199.13" rx="5" ry="5"/><line class="cls-5" x1="42.17" y1="68.32" x2="64.5" y2="68.32"/><line class="cls-5" x1="42.17" y1="76.32" x2="53.33" y2="76.32"/><line class="cls-5" x1="42.17" y1="84.33" x2="60.17" y2="84.33"/><line class="cls-3" x1="106" y1="53" x2="106" y2="252"/><line class="cls-6" x1="128.5" y1="97.85" x2="253.5" y2="97.85"/><line class="cls-6" x1="128.5" y1="117.67" x2="201.5" y2="117.67"/><line class="cls-6" x1="128.5" y1="131.33" x2="247.5" y2="131.33"/><line class="cls-7" x1="113.33" y1="61.67" x2="113.33" y2="124.33"/><line class="cls-7" x1="113.33" y1="132.33" x2="113.33" y2="135"/><line class="cls-7" x1="113.33" y1="144" x2="113.33" y2="244.33"/><line class="cls-8" x1="134.5" y1="233.25" x2="231" y2="233.25"/><line class="cls-8" x1="134.5" y1="157.75" x2="134.5" y2="233.25"/><polygon class="cls-9" points="265 228.08 184.42 203.43 138 179.96 138 228.05 265 228.25 265 228.08"/><line class="cls-8" x1="237.17" y1="233.25" x2="249" y2="233.25"/><line class="cls-8" x1="254.54" y1="233.25" x2="257.75" y2="233.25"/></svg>