<?xml version="1.0" encoding="UTF-8"?>
<svg width="16px" height="16px" viewBox="0 0 16 16" version="1.1" xmlns="http://www.w3.org/2000/svg" xmlns:xlink="http://www.w3.org/1999/xlink">
    <!-- Generator: Sketch 48.2 (47327) - http://www.bohemiancoding.com/sketch -->
    <title>phone</title>
    <desc>Created with Sketch.</desc>
    <defs></defs>
    <g id="Store---Footer" stroke="none" stroke-width="1" fill="none" fill-rule="evenodd" transform="translate(-752.000000, -148.000000)">
        <g id="Footer" fill="#000000" fill-rule="nonzero">
            <g id="Contents" transform="translate(503.000000, 59.000000)">
                <g id="Contact" transform="translate(0.000000, 54.000000)">
                    <g id="Links" transform="translate(249.000000, 5.000000)">
                        <g id="Phone" transform="translate(0.000000, 28.000000)">
                            <g id="auricular-phone-symbol-in-a-circle" transform="translate(0.000000, 2.000000)">
                                <path d="M8,1 C11.859375,1 15,4.140625 15,8 C15,11.859375 11.859375,15 8,15 C4.140625,15 1,11.859375 1,8 C1,4.140625 4.140625,1 8,1 Z M8,0 C3.58203125,0 0,3.58203125 0,8 C0,12.4179688 3.58203125,16 8,16 C12.4179688,16 16,12.4179688 16,8 C16,3.58203125 12.4179688,0 8,0 Z M12.4599687,10.6748125 L12.4150313,10.5380938 C12.3095625,10.2236563 11.9619063,9.89553125 11.6415938,9.807625 L10.459,9.484375 C10.1386875,9.39746875 9.68165625,9.51465625 9.44634375,9.75 L9.01859375,10.17775 C7.46390625,9.75684375 6.2441875,8.537125 5.82425,6.9824375 L6.252,6.5546875 C6.486375,6.3203125 6.6035625,5.86328125 6.51665625,5.542 L6.19434375,4.359375 C6.1074375,4.0390625 5.77734375,3.69140625 5.46290625,3.5859375 L5.328125,3.541 C5.0126875,3.43553125 4.5625,3.54196875 4.328125,3.77734375 L3.6875,4.41796875 C3.57325,4.53125 3.5,4.8564375 3.5,4.8574375 C3.4785,6.89065625 4.27540625,8.84865625 5.71290625,10.287125 C7.1465,11.7207187 9.0976875,12.5166563 11.1240312,12.4990313 C11.1347812,12.4990313 11.46975,12.42775 11.584,12.3134688 L12.224625,11.6728438 C12.459,11.4394375 12.5644375,10.98925 12.4599687,10.6748125 Z" id="phone"></path>
                            </g>
                        </g>
                    </g>
                </g>
            </g>
        </g>
    </g>
</svg>