<?xml version="1.0" encoding="UTF-8"?>
<svg width="18px" height="20px" viewBox="0 0 18 20" version="1.1" xmlns="http://www.w3.org/2000/svg" xmlns:xlink="http://www.w3.org/1999/xlink">
    <!-- Generator: Sketch 48.2 (47327) - http://www.bohemiancoding.com/sketch -->
    <title>Icon/invoices</title>
    <desc>Created with Sketch.</desc>
    <defs></defs>
    <g id="Symbols" stroke="none" stroke-width="1" fill="none" fill-rule="evenodd">
        <g id="Icon/invoices" fill="#E56353" fill-rule="nonzero">
            <path d="M5.28350943,8.19460916 C5.10399461,8.34501348 4.89536927,8.4032345 4.5994124,8.43234501 L4.5994124,6.83126685 C4.9535903,6.94770889 5.19132615,7.0690027 5.34173046,7.18544474 C5.45817251,7.30188679 5.5503558,7.48140162 5.5503558,7.69002695 C5.5212938,7.89865229 5.43396226,8.07331536 5.28350943,8.19460916 Z M4.00754717,4.00754717 C3.74070081,4.03665768 3.53207547,4.12398922 3.38167116,4.24528302 C3.23126685,4.39568733 3.14393531,4.5703504 3.14393531,4.74986523 C3.14393531,4.95849057 3.20215633,5.10404313 3.32345013,5.22533693 C3.43989218,5.34177898 3.67762803,5.46307278 4.00754717,5.57951482 L4.00754717,4.00754717 Z M17.9611375,7.39407008 L17.9611375,17.2528302 C17.9611375,18.4706199 16.9811321,19.4507224 15.7633423,19.4507224 L2.19784367,19.4507224 C0.980053908,19.4507224 0,18.4706199 0,17.2528302 L0,2.19784367 C0,0.980053908 0.980053908,0 2.19784367,0 L10.6884097,0 C11.5471213,0 11.964372,0.237735849 12.4980647,0.800539084 L17.1314879,5.49218329 C17.7525606,6.08409704 17.9611375,6.4722372 17.9611375,7.39407008 Z M8.19456065,5.19622642 L11.4597412,5.19622642 C11.8478814,5.19622642 12.1439353,4.90026954 12.1439353,4.54123989 L12.1439353,4.03665768 C12.1439353,3.68247978 11.8478814,3.38167116 11.4597412,3.38167116 L8.19456065,3.38167116 L8.19456065,5.19622642 Z M4.00754717,6.68086253 L4.00754717,8.43234501 C3.47385445,8.34501348 2.96927224,8.10727763 2.46469003,7.66091644 L1.8097035,8.43234501 C2.46469003,8.99514825 3.20700809,9.32506739 4.00754717,9.41239892 L4.00754717,10.0625337 L4.5703504,10.0625337 L4.5703504,9.40754717 C5.19622642,9.37843666 5.66684636,9.19892183 6.05498652,8.87385445 C6.40916442,8.54878706 6.61778976,8.10242588 6.61778976,7.59784367 C6.61778976,7.06415094 6.46738544,6.67601078 6.14231806,6.40916442 C5.81725067,6.14231806 5.31266846,5.90458221 4.62857143,5.7541779 L4.59946092,5.7541779 L4.59946092,4.06091644 C5.07493261,4.11913747 5.49218329,4.3277628 5.8754717,4.59460916 L6.46738544,3.76495957 C5.8754717,3.37681941 5.24959569,3.13908356 4.59460916,3.10997305 L4.59460916,2.60539084 L4.03180593,2.60539084 L4.03180593,3.05175202 C3.4690027,3.08086253 2.993531,3.26037736 2.63450135,3.58544474 C2.28032345,3.91051213 2.07169811,4.35687332 2.07169811,4.86145553 C2.07169811,5.36603774 2.25121294,5.7541779 2.54716981,6.05013477 C2.84797844,6.29272237 3.32345013,6.53045822 4.00754717,6.68086253 Z M16.209655,16.3018868 C16.209655,15.9476604 15.9136981,15.6469003 15.525558,15.6469003 L2.37245822,15.6469003 C1.98431806,15.6469003 1.7174717,15.9428571 1.7174717,16.3018868 L1.7174717,16.806469 C1.7174717,17.1605984 2.01342857,17.4614555 2.37245822,17.4614555 L15.525558,17.4614555 C15.8797844,17.4614555 16.209655,17.1654987 16.209655,16.806469 L16.209655,16.3018868 Z M16.209655,12.2021563 C16.209655,11.8479299 15.9136981,11.5471698 15.525558,11.5471698 L2.37245822,11.5471698 C1.98431806,11.5471698 1.7174717,11.8431267 1.7174717,12.2021563 L1.7174717,12.7067385 C1.7174717,13.0608679 2.01342857,13.3617251 2.37245822,13.3617251 L15.525558,13.3617251 C15.8797844,13.3617251 16.209655,13.0657682 16.209655,12.7067385 L16.209655,12.2021563 Z M16.209655,8.10242588 C16.209655,7.74824798 15.9136981,7.44743935 15.525558,7.44743935 L8.19456065,7.44743935 L8.19456065,9.25714286 L15.5304097,9.25714286 C15.8846361,9.25714286 16.2145067,8.96118598 16.2145067,8.60215633 L16.2145067,8.10242588 L16.209655,8.10242588 Z" id="Shape"></path>
        </g>
    </g>
</svg>