<?xml version="1.0" encoding="UTF-8"?>
<svg width="24px" height="24px" viewBox="0 0 24 24" version="1.1" xmlns="http://www.w3.org/2000/svg" xmlns:xlink="http://www.w3.org/1999/xlink">
    <!-- Generator: Sketch 48.2 (47327) - http://www.bohemiancoding.com/sketch -->
    <title>Group</title>
    <desc>Created with Sketch.</desc>
    <defs>
        <path d="M4.72865246,2.15115073 L2.84882894,2.15115073 L2.84882894,0.271317041 C2.84882894,0.185682918 2.73254585,0 2.49998983,0 C2.26743382,0 2.15115073,0.185693083 2.15115073,0.271317041 L2.15115073,2.1511609 L0.271317041,2.1511609 C0.185693083,2.15115073 0,2.26743382 0,2.49997967 C0,2.73252552 0.185693083,2.84881877 0.271317041,2.84881877 L2.1511609,2.84881877 L2.1511609,4.72866263 C2.1511609,4.81427642 2.26743382,4.99997967 2.5,4.99997967 C2.73256618,4.99997967 2.8488391,4.81427642 2.8488391,4.72866263 L2.8488391,2.84881877 L4.72868296,2.84881877 C4.81429675,2.84881877 5,2.73254585 5,2.49997967 C5,2.26741349 4.81427642,2.15115073 4.72865246,2.15115073 Z" id="path-1"></path>
    </defs>
    <g id="Bundle---Product" stroke="none" stroke-width="1" fill="none" fill-rule="evenodd" transform="translate(-884.000000, -44.000000)">
        <g id="Group" transform="translate(884.000000, 44.000000)" fill-rule="nonzero">
            <path d="M12,1.52259158e-15 C5.372583,-1.52259158e-15 0,5.372583 0,12 C-1.52259158e-15,18.627417 5.372583,24 12,24 C18.627417,24 24,18.627417 24,12 C24,5.372583 18.627417,6.09036631e-15 12,1.52259158e-15 Z M12,22.2857143 C6.31935686,22.2857143 1.71428571,17.6806431 1.71428571,12 C1.71428571,6.31935686 6.31935686,1.71428571 12,1.71428571 C17.6806431,1.71428571 22.2857143,6.31935686 22.2857143,12 C22.2857143,14.727941 21.2020439,17.3441527 19.2730983,19.2730983 C17.3441527,21.2020439 14.727941,22.2857143 12,22.2857143 Z" id="Shape" fill="#000000"></path>
            <g id="list" transform="translate(6.000000, 7.000000)">
                <path d="M11.2415709,8.91627731 L1.1395777,8.91627731 C0.720738264,8.91627731 0.381148603,8.57668765 0.381148603,8.15784821 C0.381148603,7.73900878 0.720738264,7.39941912 1.1395777,7.39941912 L11.2415709,7.39941912 C11.6604103,7.39941912 12,7.73900878 12,8.15784821 C12,8.57668765 11.6604103,8.91627731 11.2415709,8.91627731 Z M11.2415709,5.7166043 L7.1395777,5.7166043 C6.72073826,5.7166043 6.3811486,5.37701464 6.3811486,4.95817521 C6.3811486,4.53933577 6.72073826,4.19974611 7.1395777,4.19974611 L11.2415709,4.19974611 C11.6604103,4.19974611 12,4.53933577 12,4.95817521 C12,5.37694153 11.6604103,5.7166043 11.2415709,5.7166043 Z M11.2415709,2.51685819 L8.1395777,2.51685819 C7.72073826,2.51685819 7.3811486,2.17726853 7.3811486,1.75842909 C7.3811486,1.33958966 7.72073826,1 8.1395777,1 L11.2415709,1 C11.6604103,1 12,1.33958966 12,1.75842909 C12,2.17726853 11.6604103,2.51685819 11.2415709,2.51685819 Z" id="Shape" fill="#000000"></path>
                <g id="Shape">
                    <use fill="#000000" fill-rule="evenodd" xlink:href="#path-1"></use>
                    <path stroke="#000000" stroke-width="0.3" d="M2.9988391,2.99881877 L2.9988391,4.72866263 C2.9988391,4.93344069 2.77846621,5.14997967 2.5,5.14997967 C2.22153379,5.14997967 2.0011609,4.93344069 2.0011609,4.72866263 L2.0011609,2.99881877 L0.271317041,2.99881877 C0.0665378566,2.99881877 -0.15,2.77843249 -0.15,2.49997967 C-0.15,2.22152056 0.0665497837,2.00113659 0.271317041,2.0011609 L2.00115073,2.0011609 L2.00115073,0.271317041 C2.00115073,0.066534859 2.22152915,-0.15 2.49998983,-0.15 C2.77845286,-0.15 2.99882894,0.0665277443 2.99882894,0.271317041 L2.99882894,2.00115073 L4.72865246,2.00115073 C4.9334417,2.00115073 5.15,2.22150914 5.15,2.49997967 C5.15,2.77844588 4.93346102,2.99881877 4.72868296,2.99881877 L2.9988391,2.99881877 Z"></path>
                </g>
            </g>
        </g>
    </g>
</svg>