<?xml version="1.0" encoding="UTF-8"?>
<svg width="22px" height="24px" viewBox="0 0 22 24" version="1.1" xmlns="http://www.w3.org/2000/svg" xmlns:xlink="http://www.w3.org/1999/xlink">
    <!-- Generator: Sketch 48.2 (47327) - http://www.bohemiancoding.com/sketch -->
    <title>Icon/my-products</title>
    <desc>Created with Sketch.</desc>
    <defs></defs>
    <g id="Symbols" stroke="none" stroke-width="1" fill="none" fill-rule="evenodd">
        <g id="Icon/my-products" fill="#E56353" fill-rule="nonzero">
            <path d="M7.45174646,16.1339958 L20.2892201,16.1339958 L20.2892201,17.7371274 L6.16327913,17.7371274 L3.5606745,5.92314062 L0,5.92314062 L0,4.3208371 L4.8474857,4.3208371 L7.45174646,16.1339958 Z M8.90996688,18.8036736 C7.71175851,18.8036736 6.74043963,19.7741644 6.74043963,20.9723728 C6.74043963,22.1697531 7.71175851,23.1427281 8.90996688,23.1427281 C10.1081752,23.1427281 11.0794941,22.1697531 11.0794941,20.9723728 C11.0794941,19.7741644 10.1081752,18.8036736 8.90996688,18.8036736 Z M17.8530563,18.8036736 C16.6565041,18.8036736 15.6843571,19.7741644 15.6843571,20.9723728 C15.6843571,22.1697531 16.6565041,23.1427281 17.8530563,23.1427281 C19.0512647,23.1427281 20.0234116,22.1697531 20.0234116,20.9723728 C20.0242397,19.7741644 19.0520927,18.8036736 17.8530563,18.8036736 Z M8.26242096,14.9341313 L6.35953026,5.07851551 L9.47305029,5.07851551 L16.3733062,0 L19.4611563,4.19331527 L19.327838,5.07851551 L22,5.07851551 L19.7749925,14.9341313 L8.26242096,14.9341313 Z M18.9576935,4.53530563 L18.2190605,5.07851551 L18.8765432,5.07851551 L18.9576935,4.53530563 Z M10.2249322,5.07768744 L11.8462812,5.07768744 L11.7493978,4.94519723 L12.063234,4.71416742 L12.3315266,5.07768744 L12.7289973,5.07768744 L12.3215899,4.52371274 L12.6362541,4.29268293 L13.2134146,5.07768744 L13.6638814,5.07768744 L12.9269045,4.07821439 L13.2423969,3.84718458 L14.1491268,5.07768744 L14.6674947,5.07768744 L13.5901837,3.61367058 L13.9040199,3.38181271 L15.1519121,5.07768744 L15.6023788,5.07768744 L14.1971545,3.16651611 L14.5109907,2.93631436 L16.0859681,5.07768744 L17.4671786,5.07768744 L18.8243752,4.07987052 L16.2822192,0.621875941 L10.2249322,5.07768744 Z M17.4390244,4.39287865 L15.7100271,2.04200542 L15.3937067,2.27303523 L17.1235321,4.62390846 L17.4390244,4.39287865 Z M16.8345378,4.84003312 L15.1038844,2.48833183 L14.7900482,2.71936164 L16.5223577,5.07023487 L16.8345378,4.84003312 Z" id="Shape"></path>
        </g>
    </g>
</svg>