<?xml version="1.0" encoding="UTF-8"?>
<svg width="24px" height="24px" viewBox="0 0 24 24" version="1.1" xmlns="http://www.w3.org/2000/svg" xmlns:xlink="http://www.w3.org/1999/xlink">
    <!-- Generator: Sketch 48.2 (47327) - http://www.bohemiancoding.com/sketch -->
    <title>Icon/my-suppliers</title>
    <desc>Created with Sketch.</desc>
    <defs></defs>
    <g id="Symbols" stroke="none" stroke-width="1" fill="none" fill-rule="evenodd">
        <g id="Icon/my-suppliers" fill="#E56353" fill-rule="nonzero">
            <path d="M8.66225381,16.4422177 C9.12071788,16.7248953 9.3788534,17.2423491 9.33055771,17.7779384 L8.91013882,22.4091992 C8.84282054,23.1459548 8.22443861,23.6998275 7.49837701,23.6998275 C7.45560083,23.6998275 7.41208543,23.6978563 7.36847147,23.6939138 C6.58775689,23.6230472 6.01293964,22.9330103 6.08341192,22.1526899 L6.42468502,18.3959754 L5.378492,17.7500945 L5.49588009,18.0614538 C5.66530925,18.5119836 5.59562547,19.0179548 5.30900535,19.4051581 L2.55984724,23.124271 C2.28194991,23.5007803 1.85275894,23.6999261 1.41804847,23.6999261 C1.12433184,23.6999261 0.828988923,23.609692 0.575584405,23.4220287 C-0.0546743216,22.9560739 -0.18773387,22.0676304 0.277875986,21.4377659 L2.56768297,18.3398932 C2.56768297,18.3398932 1.4206111,15.1540534 1.38512855,15.029076 C1.20687804,14.4012813 1.01734211,13.7532813 1.25803204,13.0917782 L2.93635648,8.47830801 C2.93768707,8.53838193 2.93147763,8.59717454 2.93827845,8.65803696 L3.34130104,12.2611417 C3.41177332,12.8894292 3.7712805,13.4492156 4.31288215,13.7742752 C4.63192937,13.9654374 4.99306284,14.0628665 5.35567475,14.0628665 C5.60907927,14.0628665 5.86401151,14.0153101 6.10548995,13.9191129 L6.13870556,13.9059055 L5.84804436,14.7048049 L8.66225381,16.4422177 Z M6.96702588,8.20745791 C6.84273841,7.09498152 5.8434612,6.29130185 4.72704231,6.41834908 C4.24526818,6.47216427 3.82874252,6.69718275 3.51368707,7.01810267 C4.09397455,6.01887474 5.31807311,5.54414784 6.44286983,5.95397125 C7.62138317,6.38252156 8.25435237,7.6259384 7.96221274,8.81588501 L7.07470556,9.16947844 L6.96702588,8.20745791 Z M6.97969118,5.01683778 C5.59478769,5.01683778 4.47201151,3.89371663 4.47201151,2.50846817 C4.47201151,1.12321971 5.59483697,1.77635684e-15 6.97969118,1.77635684e-15 C8.36538317,1.77635684e-15 9.48811007,1.12321971 9.48811007,2.50846817 C9.48811007,3.89371663 8.36533389,5.01683778 6.97969118,5.01683778 Z M22.9322004,14.6939138 C23.5197322,14.6939138 23.9964304,15.1702177 23.9964797,15.7580945 L23.9964797,18.7479425 C23.9964797,19.3358193 23.5197815,19.8121232 22.9322497,19.8121232 L15.4322251,19.8121232 C14.8446932,19.8121232 14.3680444,19.3358686 14.3680444,18.7479425 L14.3680444,15.7580945 C14.3680444,15.1702177 14.8446932,14.6939138 15.4322251,14.6939138 L22.9322004,14.6939138 Z M14.5707384,13.224345 C13.9832066,13.224345 13.5065577,12.7480903 13.5065577,12.1601643 L13.5065577,9.49690349 C13.5065577,8.90902669 13.9832066,8.43272279 14.5707384,8.43272279 L18.7515187,8.43272279 C19.3390505,8.43272279 19.8157487,8.90897741 19.8157487,9.49690349 L19.8157487,12.1601643 C19.8157487,12.7480903 19.3390505,13.224345 18.7515187,13.224345 L14.5707384,13.224345 Z M21.9693914,20.9270144 C22.4175557,20.9270144 22.7802168,21.2900698 22.7801676,21.7379384 C22.7801676,22.1857084 22.4175064,22.5487639 21.9693421,22.5487639 L21.1315598,22.5487639 C21.0075187,23.1620205 20.4657692,23.6240329 19.8156994,23.6240329 C19.1654325,23.6240329 18.6238308,23.1620698 18.4996912,22.5487639 L15.4558801,22.5487639 C15.331839,23.1620205 14.7901388,23.6240329 14.1400197,23.6240329 C13.4898021,23.6240329 12.9481019,23.1620698 12.8240115,22.5487639 L11.8342456,22.5487639 C11.3860813,22.5487639 11.0234201,22.1857084 11.0234201,21.7379384 L11.0234201,12.4643285 L9.75861521,12.4643285 L9.09775278,12.4643285 C8.82438933,12.4643285 8.59473841,12.3204764 8.44788009,12.1134456 L5.80541603,13.165848 C5.66052896,13.223655 5.50765833,13.2521396 5.35567475,13.2521396 C5.13790063,13.2521396 4.92180206,13.1939384 4.73014703,13.0791129 C4.40474252,12.8839589 4.18938317,12.5482053 4.14739549,12.1709076 L3.74432363,8.56780287 C3.66912034,7.90028747 4.14971172,7.2989076 4.81722712,7.22409856 C5.48395402,7.14687474 6.08651664,7.6298809 6.16093143,8.29779055 L6.38742835,10.3161068 L9.03920658,9.25981109 C9.6600033,9.01394661 10.3702456,9.31520329 10.6188698,9.93954825 C10.7392148,10.2419384 10.7275351,10.5629076 10.6149273,10.8426283 L11.4626152,10.8426283 L11.8342949,10.8426283 C12.2824591,10.8426283 12.6450711,11.2056838 12.6450711,11.6534045 L12.6450711,20.9270144 L21.9693914,20.9270144 Z" id="Combined-Shape"></path>
        </g>
    </g>
</svg>