<?xml version="1.0" encoding="UTF-8"?>
<svg width="18px" height="23px" viewBox="0 0 18 23" version="1.1" xmlns="http://www.w3.org/2000/svg" xmlns:xlink="http://www.w3.org/1999/xlink">
    <!-- Generator: Sketch 48.2 (47327) - http://www.bohemiancoding.com/sketch -->
    <title>Icon/orders</title>
    <desc>Created with Sketch.</desc>
    <defs></defs>
    <g id="Symbols" stroke="none" stroke-width="1" fill="none" fill-rule="evenodd">
        <g id="Icon/orders" fill="#E56353" fill-rule="nonzero">
            <path d="M12.15525,0 L0,0 L0,22.5 L17.625,22.5 L17.625,5.46975 L12.15525,0 Z M6.609375,15.667875 L4.734375,17.167875 C4.665375,17.223 4.5825,17.25 4.5,17.25 C4.403625,17.25 4.30725,17.212875 4.2345,17.140125 L3.4845,16.390125 C3.337875,16.2435 3.337875,16.0065 3.4845,15.859875 C3.631125,15.71325 3.868125,15.71325 4.01475,15.859875 L4.527375,16.3725 L6.14025,15.082125 C6.3015,14.95275 6.538125,14.979 6.667125,15.140625 C6.79725,15.302625 6.771,15.5385 6.609375,15.667875 Z M6.609375,11.542875 L4.734375,13.042875 C4.665375,13.098 4.5825,13.125 4.5,13.125 C4.403625,13.125 4.30725,13.087875 4.2345,13.015125 L3.4845,12.265125 C3.337875,12.1185 3.337875,11.8815 3.4845,11.734875 C3.631125,11.58825 3.868125,11.58825 4.01475,11.734875 L4.527375,12.2475 L6.14025,10.957125 C6.3015,10.82775 6.538125,10.854 6.667125,11.015625 C6.79725,11.177625 6.771,11.4135 6.609375,11.542875 Z M6.609375,7.417875 L4.734375,8.917875 C4.665375,8.973 4.5825,9 4.5,9 C4.403625,9 4.30725,8.962875 4.2345,8.890125 L3.4845,8.140125 C3.337875,7.9935 3.337875,7.7565 3.4845,7.609875 C3.631125,7.46325 3.868125,7.46325 4.01475,7.609875 L4.527375,8.1225 L6.14025,6.832125 C6.3015,6.70275 6.538125,6.729 6.667125,6.890625 C6.79725,7.052625 6.771,7.2885 6.609375,7.417875 Z M13.5,16.875 L7.5,16.875 C7.293,16.875 7.125,16.707375 7.125,16.5 C7.125,16.292625 7.293,16.125 7.5,16.125 L13.5,16.125 C13.707,16.125 13.875,16.292625 13.875,16.5 C13.875,16.707375 13.707,16.875 13.5,16.875 Z M13.5,12.75 L7.5,12.75 C7.293,12.75 7.125,12.582375 7.125,12.375 C7.125,12.167625 7.293,12 7.5,12 L13.5,12 C13.707,12 13.875,12.167625 13.875,12.375 C13.875,12.582375 13.707,12.75 13.5,12.75 Z M13.5,8.625 L7.5,8.625 C7.293,8.625 7.125,8.457375 7.125,8.25 C7.125,8.042625 7.293,7.875 7.5,7.875 L13.5,7.875 C13.707,7.875 13.875,8.042625 13.875,8.25 C13.875,8.457375 13.707,8.625 13.5,8.625 Z M11.625,6 L11.625,0.75 L16.875,6 L11.625,6 Z" id="Orders"></path>
        </g>
    </g>
</svg>