<?xml version="1.0" encoding="UTF-8"?>
<svg width="16px" height="21px" viewBox="0 0 16 21" version="1.1" xmlns="http://www.w3.org/2000/svg" xmlns:xlink="http://www.w3.org/1999/xlink">
    <!-- Generator: Sketch 48.2 (47327) - http://www.bohemiancoding.com/sketch -->
    <title>Icon/profile</title>
    <desc>Created with Sketch.</desc>
    <defs></defs>
    <g id="Symbols" stroke="none" stroke-width="1" fill="none" fill-rule="evenodd">
        <g id="Icon/profile" fill="#E56353" fill-rule="nonzero">
            <path d="M7.91625279,10.1812937 C5.60154647,10.1812937 3.72502602,7.90215613 3.72502602,5.09067658 C3.72502602,2.27913755 4.3412342,0 7.91625279,0 C11.4912714,0 12.1073606,2.27913755 12.1073606,5.09067658 C12.1073606,7.90215613 10.2308401,10.1812937 7.91625279,10.1812937 Z M15.8231673,17.7485204 C15.8281041,18.0617993 15.8307212,18.1159851 15.8320297,18.0880297 C15.8318513,18.1710632 15.8317323,18.2931152 15.8317323,18.4686394 C15.8317323,18.4686394 14.66629,20.8178439 7.91619331,20.8178439 C1.1659777,20.8178439 0.000654275093,18.4686394 0.000654275093,18.4686394 C0.000654275093,18.1954498 0.00029739777,18.0387807 0,17.9540818 C0.00130855019,17.9992862 0.00469888476,17.9788253 0.0120148699,17.5894126 C0.101234201,12.8205204 0.779776952,11.4456506 5.62111524,10.5718959 C5.62111524,10.5718959 6.31024535,11.4498736 7.91619331,11.4498736 C9.52214126,11.4498736 10.2111524,10.5718959 10.2111524,10.5718959 C15.1059033,11.4552862 15.7455465,12.850855 15.8231673,17.7485204 Z" id="Combined-Shape"></path>
        </g>
    </g>
</svg>