<?xml version="1.0" encoding="UTF-8"?>
<svg width="22px" height="21px" viewBox="0 0 22 21" version="1.1" xmlns="http://www.w3.org/2000/svg" xmlns:xlink="http://www.w3.org/1999/xlink">
    <!-- Generator: Sketch 48.2 (47327) - http://www.bohemiancoding.com/sketch -->
    <title>Icon/requests</title>
    <desc>Created with Sketch.</desc>
    <defs></defs>
    <g id="Symbols" stroke="none" stroke-width="1" fill="none" fill-rule="evenodd">
        <g id="Icon/requests" fill="#E56353" fill-rule="nonzero">
            <path d="M19.6149412,0 C20.8857647,0 21.9160814,1.03021719 21.916181,2.30114027 L21.916181,14.1273846 C21.916181,15.3983077 20.8858643,16.4285249 19.6150407,16.4285249 L8.63942986,16.4285249 C8.44073303,16.4285249 8.25009955,16.5074661 8.10963801,16.6479276 L4.48481448,20.2727511 C4.19582805,20.561638 3.7018733,20.3569683 3.7018733,19.9484253 L3.7018733,17.1776199 C3.7018733,16.7638009 3.36639819,16.4283258 2.95257919,16.4283258 L2.30114027,16.4283258 C1.03021719,16.4283258 0,15.3981086 0,14.1271855 L0,2.30114027 C0,1.03021719 1.03021719,0 2.30114027,0 L19.6149412,0 Z M11.0559457,11.2181086 C10.7638733,11.2181086 10.511819,11.3213394 10.2999819,11.5278009 C10.0879457,11.734362 9.98202715,11.9845249 9.98202715,12.27819 C9.98202715,12.5627964 10.087448,12.8105701 10.2986878,13.0216109 C10.5097285,13.2328507 10.7619819,13.3382715 11.0559457,13.3382715 C11.3495113,13.3382715 11.5997738,13.2328507 11.8061357,13.0216109 C12.0126968,12.8106697 12.1159276,12.5627964 12.1159276,12.27819 C12.1159276,11.9937828 12.0126968,11.746009 11.8061357,11.5347692 C11.5996742,11.3237285 11.3495113,11.2181086 11.0559457,11.2181086 Z M13.3688326,3.83885068 C12.827095,3.40751131 12.1204072,3.19179186 11.2485701,3.19179186 C10.3950498,3.19179186 9.72947511,3.38929412 9.25234389,3.7838009 C8.77491403,4.17850679 8.53639819,4.59600905 8.53639819,5.03660633 C8.53639819,5.28438009 8.62091403,5.47720362 8.79024434,5.61487783 C8.95927602,5.75255204 9.14901357,5.82133937 9.35945701,5.82133937 C9.52400905,5.82133937 9.66128507,5.77057014 9.77088688,5.66903167 C9.88058824,5.56749321 9.96749321,5.45540271 10.0316018,5.33266063 C10.0957104,5.2100181 10.2282081,5.09772851 10.4295928,4.99619005 C10.6306787,4.89465158 10.8867149,4.84388235 11.1978009,4.84388235 C11.5634389,4.84388235 11.8607873,4.92302262 12.089448,5.08120362 C12.3181086,5.23948416 12.4324887,5.46774661 12.4324887,5.7660905 C12.4324887,5.93780995 12.3819186,6.10723982 12.2810769,6.27467873 C12.1800362,6.4420181 12.0883529,6.56635294 12.0057285,6.64768326 C11.9231041,6.72901357 11.7762715,6.85125792 11.5652308,7.013819 C11.353991,7.17647964 11.234733,7.27124887 11.2072579,7.29842534 C10.5921538,7.82284163 10.2848507,8.50991855 10.2848507,9.35965611 C10.2848507,9.71245249 10.3399005,9.95206335 10.45,10.0785882 C10.5601991,10.2050136 10.7574027,10.2683258 11.042009,10.2683258 C11.583448,10.2683258 11.8542172,10.0802805 11.8542172,9.7038914 C11.8542172,9.41022624 11.8655656,9.19231674 11.8885611,9.0499638 C11.9113575,8.90780995 11.9801448,8.74256109 12.0951222,8.55431674 C12.2098009,8.36627149 12.3869955,8.17573756 12.6266063,7.98301357 C13.6625973,7.18444344 14.1808416,6.34466063 14.1808416,5.46356561 C14.1811403,4.81172851 13.9102715,4.27038914 13.3688326,3.83885068 Z" id="Combined-Shape"></path>
        </g>
    </g>
</svg>